<svg xmlns="http://www.w3.org/2000/svg" width="24" height="24" viewBox="0 0 24 24" fill="none">
<path d="M12.9252 21.5275C8.89292 20.2678 5.94661 16.4881 5.94661 12.0787C5.94661 7.51187 8.89322 3.735 13.08 2.4725C13.5453 2.315 13.3902 2 12.9252 2C7.34221 2.1575 3 6.56687 3 12.0787C3 17.5906 7.34221 22 12.9252 22C13.3905 22 13.3905 21.685 12.9252 21.5275ZM7.80752 14.2837V13.4962C7.80752 9.09 11.2194 5.62219 15.5616 5.62219C19.5937 5.62219 20.8345 7.51188 20.9896 7.35438C21.1447 7.19688 19.5937 3.575 14.7861 3.575C10.447 3.575 7.03201 7.03969 7.03201 11.4491C7.03201 12.3941 7.18711 13.3387 7.49731 14.2834C7.65242 14.7559 7.80752 14.7562 7.80752 14.2837ZM11.0643 8.61406C13.08 7.66906 15.5616 7.66906 18.043 8.61406C19.7488 9.24406 20.6794 10.0312 20.8342 10.0312C20.989 10.0312 19.9036 8.14156 17.8875 7.35406C15.4065 6.40625 12.9252 6.88531 10.9089 8.45625C10.7538 8.61375 10.9089 8.77125 11.064 8.61375L11.0643 8.61406Z" fill="#0095D6"/>
</svg>
