<svg viewBox="0 0 189 208" width="90" height="100" fill="none" xmlns="http://www.w3.org/2000/svg">
<path fill-rule="evenodd" clip-rule="evenodd" d="M112.287 10.3584C117.9 20.2129 114.487 32.7666 104.664 38.3978L43.5862 73.41C41.9693 74.3369 40.972 76.0577 40.972 77.9209V132.899C40.972 134.763 41.9693 136.483 43.5862 137.41L91.9123 165.113C93.515 166.032 95.485 166.032 97.0877 165.113L145.414 137.41C147.031 136.483 148.028 134.763 148.028 132.899V98.7091L104.567 123.309C94.7131 128.886 82.2179 125.394 76.6581 115.509C71.0983 105.624 74.5793 93.0891 84.4331 87.5117L146.62 52.3128C165.563 41.591 189 55.321 189 77.1398V137.066C189 151.102 181.503 164.062 169.355 171.026L113.844 202.847C101.858 209.718 87.1424 209.718 75.1558 202.847L19.6453 171.026C7.49714 164.062 0 151.102 0 137.066V73.7544C0 59.7184 7.49714 46.7585 19.6453 39.7947L84.3361 2.71125C94.1595 -2.91993 106.673 0.503802 112.287 10.3584Z" fill="url(#paint0_linear)"/>
<defs>
<linearGradient id="paint0_linear" x1="142.253" y1="31.4537" x2="44.8052" y2="184.17" gradientUnits="userSpaceOnUse">
<stop stop-color="#FFB45B"/>
<stop offset="1" stop-color="#FF8A00"/>
</linearGradient>
</defs>
</svg>
