<svg version="1" xmlns="http://www.w3.org/2000/svg" width="1600" height="282" viewBox="0 0 16000 2820"><g fill="#f02e65"><path d="M5742 1738l3-1083 107-3 107-3 3 158 3 158 29-50c85-147 244-250 429-276 370-51 672 138 771 483 42 148 40 414-6 557-48 152-133 272-253 354-69 48-106 66-190 93-86 27-334 27-420 0-140-45-248-126-326-246l-34-53-3 497-2 496h-220l2-1082zm912 197c73-22 131-55 187-107 42-40 109-127 109-143 0-4 7-21 15-38 26-57 45-166 45-255-1-264-135-472-345-538-46-14-90-19-185-19-139 0-180 11-280 73-231 144-310 492-176 774 64 134 211 243 366 269 65 11 199 3 264-16zM7552 1738l3-1083 108-3 107-3v326l31-54c97-168 268-271 480-286 235-18 417 46 560 196 62 65 122 166 157 264 38 105 53 337 31 459-12 67-47 185-59 201-4 6-11 21-15 35-20 65-129 192-215 250-66 44-169 87-248 101-78 15-304 5-362-16-57-20-152-69-181-92-68-56-130-129-162-188-15-28-16 6-17 473v502h-220l2-1082zm913 196c173-55 284-174 336-359 22-78 19-305-5-380-20-62-68-158-90-180-7-7-24-27-38-43-31-37-124-98-164-108-16-4-35-12-43-18-9-7-68-11-160-11h-146l-85 42c-92 45-127 73-181 143-57 73-88 146-105 244-26 149-8 301 50 417 71 141 204 239 366 269 63 12 205 4 265-16zM885 2518c-201-51-327-108-460-208-26-20-174-168-200-200-77-96-150-239-191-375-27-86-28-100-28-300-1-190 1-218 22-289 25-87 61-176 94-233 11-21 26-47 32-58 56-100 197-251 307-328 196-137 388-197 634-197 192 0 356 37 494 111l54 28 72-34c160-77 288-105 480-105 255 0 460 66 657 212 108 81 278 269 278 308 0 4 3 10 8 12 17 7 82 149 114 248l33 105v430l-33 105c-32 100-101 249-139 299-48 63-132 160-173 199-62 58-192 145-281 186-165 76-239 91-464 91-227 0-317-19-482-99l-68-34-57 29c-161 81-257 102-483 105-99 1-198-2-220-8zm343-233c103-15 135-25 242-77 87-42 143-81 214-147 280-265 355-660 190-999-25-52-50-100-55-106-126-159-213-235-334-295-160-79-189-86-385-86-158 0-182 2-245 24-146 49-258 116-353 210-69 68-152 175-152 196 0 7-3 15-7 17-5 2-18 23-29 48-106 222-106 484-1 720 61 138 205 301 333 376 98 59 218 103 315 119 114 17 153 17 267 0z"/><path d="M968 1704c-3-3-2-22 3-42 15-60 39-161 59-247 10-44 25-109 34-145 8-36 20-85 26-110 5-25 15-64 21-87l12-43h53c30 0 54 3 54 8-1 9-14 68-35 152-8 36-24 103-35 150s-26 112-34 145-21 89-29 125c-23 100-23 100-76 100-26 0-50-2-53-6zM776 1460l-67-71 62-69 62-70h68c38 0 69 3 69 8 0 4-19 28-42 53-79 84-78 72-14 138 31 33 56 64 56 70 0 7-25 11-63 11h-64l-67-70zM1220 1519c0-6 25-37 56-70 64-66 65-55-13-138-24-26-43-49-43-53 0-5 31-8 69-8h68l62 70c60 67 61 70 44 88-10 10-40 42-66 70l-49 52h-64c-39 0-64-4-64-11zM4415 2144c-69-16-138-41-190-68-76-38-74-37-161-123-60-59-82-90-117-165-67-141-82-214-81-398 0-185 15-261 80-397 34-70 60-107 112-160 82-82 99-95 177-133 199-97 482-90 662 16 91 53 158 122 212 216l31 53V650h210l-2 743-3 742-102 3-103 3-1-173c-1-163-1-171-16-138-52 119-196 239-353 296-44 16-308 29-355 18zm355-212c93-32 140-61 199-121 71-73 71-73 109-153 19-41 38-104 48-165 15-84 15-109 4-178-33-209-126-352-277-425-38-19-77-38-88-43-31-16-223-21-286-8-90 19-173 64-236 129-87 88-100 109-135 220-33 101-32 307 1 412 61 189 199 313 391 350 68 13 207 4 270-18zM15110 2144c-144-26-307-108-393-199-47-49-119-155-142-210-46-110-59-185-59-355 0-143 3-176 23-245 79-274 262-447 534-506 227-48 472-6 644 112 57 39 150 133 158 160 4 10 10 19 15 19 4 0 10 8 14 18 3 9 10 24 15 32 13 20 35 73 56 135 19 56 31 248 21 319l-7 46h-1079v26c0 39 28 128 57 179 47 85 162 145 279 145 148 0 270-81 304-202l11-38h202c128 0 207 4 213 10 12 12-5 92-31 147-8 17-15 34-15 38 0 15-74 117-118 163-77 80-180 142-303 183-52 17-94 22-219 24-85 2-166 1-180-1zm477-940c-11-110-73-191-186-241-82-37-206-35-286 2-101 48-157 114-190 221-28 92-60 84 326 84h342l-6-66zM9575 2128c-3-7-18-65-35-128-16-63-44-167-61-230-39-144-49-182-93-350-19-74-44-168-55-207-12-40-33-117-47-170-57-216-97-369-101-390l-5-23h409l12 63c6 34 17 91 25 127 26 118 46 214 61 295 9 44 22 107 29 140 8 33 21 96 31 140 19 93 37 176 56 259 15 67 10 73 49-64 49-173 83-290 130-455 54-188 102-357 125-437 7-25 16-51 19-57 5-7 76-11 216-11h209l11 43c7 23 27 96 47 162 52 177 57 194 113 390 50 172 62 213 95 325 8 28 21 73 29 101s17 53 19 55c2 3 12-33 20-78 9-46 23-112 31-148 7-36 21-101 31-145 9-44 23-109 31-145 27-129 56-266 69-330 22-113 45-212 51-221 3-5 89-9 191-9h186l-7 42c-4 24-13 66-21 93-19 64-53 190-65 235-5 19-18 67-29 105-11 39-38 142-62 230-23 88-55 210-72 270-16 61-45 169-64 240-19 72-42 155-50 185s-17 67-20 83l-5 27h-446l-11-42c-5-24-17-68-26-98s-25-84-35-120-26-89-34-117c-46-153-91-306-118-398-11-38-26-88-33-110s-18-61-26-87c-7-27-16-48-20-48-6 0-22 50-59 180-10 36-32 110-50 165-34 107-41 130-89 300-18 61-36 118-41 127-6 10-10 23-10 30s-15 59-32 115l-33 103h-218c-165 0-219-3-222-12zM11657 2133c-4-3-7-343-7-755V630h400v237l84-82c118-115 252-175 392-175h54l-2 213-3 212-116 6c-63 4-130 10-148 14-94 20-178 82-216 157-40 80-45 145-45 544v384h-193c-107 0-197-3-200-7zM12775 2118c-3-13-4-351-3-753l3-730h400v1500l-197 3-198 2-5-22zM13970 2124c-159-31-269-103-320-210-55-117-60-166-60-570V970h-210l2-167 3-168 103-3 102-3V260l203 2 202 3 3 182 2 183h320v340h-320v358c0 384 1 387 53 426 24 17 47 21 150 26l122 5v350l-140 2c-88 1-168-4-215-13zM12880 424c-101-31-160-131-144-243 10-76 61-137 138-166 55-21 184-16 231 8 55 29 95 80 111 141 14 52 13 63-2 114-37 129-183 193-334 146z"/></g></svg>