
<svg viewBox="0 0 956 170" xmlns="http://www.w3.org/2000/svg" xmlns:bx="https://boxy-svg.com"><path d="M196.289 87c0 35.899-29.101 65-65 65-16.675 0-31.883-6.279-43.389-16.601 18.433-8.298 31.266-26.827 31.266-48.353 0-21.553-12.865-40.101-31.335-48.384C99.346 28.304 114.581 22 131.289 22c35.899 0 65 29.101 65 65z" fill="#87a5b9"/><path d="M105.30600000000001 35.116a65 65 0 10-78.307 103.769 65 65 0 1078.307-103.77zM98.077 44.694a53 53 0 01-63.85 84.612 53 53 0 0163.85-84.612z" bx:shape="ring 186.727 313.243 53 53 65 65 1@f84c4233" bx:origin="0.499777 0.499705" fill="#87a5b9"/><path d="M271.084 39.297c8.92 0 16.523 2.31 22.81 6.93 6.287 4.62 10.61 10.743 12.97 18.37v-24.18h11.13v88.02h-11.13v-24.18c-2.36 7.633-6.683 13.76-12.97 18.38-6.287 4.62-13.89 6.93-22.81 6.93-7.953 0-15.073-1.827-21.36-5.48-6.287-3.653-11.177-8.893-14.67-15.72-3.493-6.827-5.24-14.807-5.24-23.94 0-9.24 1.747-17.273 5.24-24.1 3.493-6.82 8.357-12.03 14.59-15.63 6.233-3.6 13.38-5.4 21.44-5.4zm2.9 9.99c-9.887 0-17.813 3.143-23.78 9.43-5.96 6.287-8.94 14.857-8.94 25.71 0 10.853 2.98 19.423 8.94 25.71 5.967 6.287 13.893 9.43 23.78 9.43 6.233 0 11.847-1.45 16.84-4.35 5-2.9 8.923-7.01 11.77-12.33 2.847-5.32 4.27-11.473 4.27-18.46s-1.423-13.137-4.27-18.45c-2.847-5.32-6.77-9.433-11.77-12.34-4.993-2.9-10.607-4.35-16.84-4.35zm115.577-9.99c8.06 0 15.18 1.8 21.36 5.4 6.18 3.6 11.017 8.81 14.51 15.63 3.493 6.827 5.24 14.86 5.24 24.1 0 9.133-1.747 17.113-5.24 23.94-3.493 6.827-8.357 12.067-14.59 15.72-6.233 3.653-13.327 5.48-21.28 5.48-9.027 0-16.657-2.31-22.89-6.93-6.233-4.62-10.53-10.747-12.89-18.38v65.77h-11.29V40.417h11.29v24.18c2.36-7.627 6.657-13.75 12.89-18.37 6.233-4.62 13.863-6.93 22.89-6.93zm-3.06 9.99c-6.233 0-11.85 1.45-16.85 4.35-4.993 2.907-8.887 7.02-11.68 12.34-2.793 5.313-4.19 11.463-4.19 18.45s1.397 13.14 4.19 18.46 6.687 9.43 11.68 12.33c5 2.9 10.617 4.35 16.85 4.35 9.993 0 17.947-3.143 23.86-9.43 5.907-6.287 8.86-14.857 8.86-25.71 0-10.853-2.953-19.423-8.86-25.71-5.913-6.287-13.867-9.43-23.86-9.43zm111.547-9.99c8.06 0 15.18 1.8 21.36 5.4 6.18 3.6 11.017 8.81 14.51 15.63 3.493 6.827 5.24 14.86 5.24 24.1 0 9.133-1.747 17.113-5.24 23.94-3.493 6.827-8.357 12.067-14.59 15.72-6.233 3.653-13.327 5.48-21.28 5.48-9.027 0-16.657-2.31-22.89-6.93-6.233-4.62-10.53-10.747-12.89-18.38v65.77h-11.29V40.417h11.29v24.18c2.36-7.627 6.657-13.75 12.89-18.37 6.233-4.62 13.863-6.93 22.89-6.93zm-3.06 9.99c-6.233 0-11.85 1.45-16.85 4.35-4.993 2.907-8.887 7.02-11.68 12.34-2.793 5.313-4.19 11.463-4.19 18.45s1.397 13.14 4.19 18.46 6.687 9.43 11.68 12.33c5 2.9 10.617 4.35 16.85 4.35 9.993 0 17.947-3.143 23.86-9.43 5.907-6.287 8.86-14.857 8.86-25.71 0-10.853-2.953-19.423-8.86-25.71-5.913-6.287-13.867-9.43-23.86-9.43zM664.085 39.137h21.28l-24.02 89.3h-25.15l-19.18-64.96-19.67 64.96h-25.14l-23.86-89.3h22.73l14.51 68.99 19.82-68.99h24.02l19.99 68.99 14.67-68.99zm55.295 17.08c3.326-5.693 7.73-10.18 13.21-13.46 5.486-3.273 11.613-4.91 18.38-4.91v24.34h-6.61c-16.654 0-24.98 7.737-24.98 23.21v43.04h-22.73v-89.3h22.73v17.08zm41.587-42.72c0-3.653 1.29-6.633 3.87-8.94 2.58-2.313 5.964-3.47 10.15-3.47 4.194 0 7.58 1.157 10.16 3.47 2.58 2.307 3.87 5.287 3.87 8.94 0 3.547-1.29 6.477-3.87 8.79-2.58 2.313-5.966 3.47-10.16 3.47-4.186 0-7.57-1.157-10.15-3.47s-3.87-5.243-3.87-8.79zm2.58 25.64h22.73v89.3h-22.73v-89.3zm82.213 69.79h8.86v19.51h-11.93c-9.994 0-17.65-2.417-22.97-7.25-5.32-4.84-7.98-12.9-7.98-24.18v-38.69h-12.41v-19.18h12.41v-22.09h22.73v22.09h19.99v19.18h-19.99v39.01c0 4.3.86 7.31 2.58 9.03 1.72 1.713 4.623 2.57 8.71 2.57zm109.126-28.53c0 2.26-.267 4.84-.8 7.74h-65.45c.32 7.953 2.47 13.81 6.45 17.57 3.973 3.76 8.916 5.64 14.83 5.64 5.266 0 9.643-1.29 13.13-3.87 3.493-2.573 5.723-6.063 6.69-10.47h24.02c-1.18 6.233-3.704 11.82-7.57 16.76-3.874 4.947-8.844 8.817-14.91 11.61-6.074 2.793-12.817 4.19-20.23 4.19-8.707 0-16.447-1.853-23.22-5.56-6.767-3.707-12.03-9-15.79-15.88-3.767-6.88-5.65-14.993-5.65-24.34 0-9.353 1.883-17.493 5.65-24.42 3.76-6.933 9.023-12.227 15.79-15.88 6.773-3.653 14.513-5.48 23.22-5.48 8.806 0 16.516 1.827 23.13 5.48 6.606 3.653 11.71 8.677 15.31 15.07 3.6 6.393 5.4 13.673 5.4 21.84zm-22.89-2.25c.326-7.313-1.58-12.85-5.72-16.61s-9.217-5.64-15.23-5.64c-6.127 0-11.287 1.88-15.48 5.64-4.194 3.76-6.504 9.297-6.93 16.61h43.36z" style="white-space:pre" fill="#87a5b9"/><path d="M67.894 64.511c-.078.192-1.072 4.095-2.142 8.725-1.111 4.63-2.871 11.938-3.864 16.262-1.915 7.92-3.063 13.124-3.063 13.813 0 .19 1.187.345 2.64.345h2.641l1.185-5.282c.69-2.869 2.221-9.451 3.445-14.616 1.225-5.166 2.716-11.441 3.291-13.967.573-2.526 1.147-4.82 1.263-5.088.115-.344-.537-.458-2.526-.458-1.493 0-2.795.114-2.87.266zM47.345 81.079l-3.52 3.827 1.034 1.224c.572.688 2.143 2.411 3.482 3.827l2.449 2.601h6.964l-3.29-3.559c-1.8-1.911-3.292-3.749-3.292-3.978 0-.268 1.378-1.989 3.062-3.826 1.683-1.874 3.061-3.483 3.061-3.674 0-.153-1.454-.268-3.214-.268h-3.176l-3.56 3.826zm26.785-3.597c0 .116.651.842 1.453 1.646 2.987 2.984 5.091 5.511 4.976 6.007-.076.269-1.531 2.066-3.29 3.941l-3.175 3.482h3.557l3.559-.038 3.251-3.558c1.8-1.988 3.253-3.751 3.253-3.98 0-.19-1.53-1.989-3.444-4.016l-3.442-3.713h-3.331c-1.875 0-3.367.115-3.367.229z" fill="#87a5b9"/></svg>