<svg width="20" height="20" viewBox="0 0 20 20" fill="none" xmlns="http://www.w3.org/2000/svg">
<path fill-rule="evenodd" clip-rule="evenodd" d="M4 3C3.46957 3 2.96086 3.21071 2.58579 3.58579C2.21071 3.96086 2 4.46957 2 5V15C2 15.5304 2.21071 16.0391 2.58579 16.4142C2.96086 16.7893 3.46957 17 4 17H16C16.5304 17 17.0391 16.7893 17.4142 16.4142C17.7893 16.0391 18 15.5304 18 15V5C18 4.46957 17.7893 3.96086 17.4142 3.58579C17.0391 3.21071 16.5304 3 16 3H4ZM16 15H4L8 7L11 13L13 9L16 15Z" fill="#9CA3AF"/>
</svg>
