<svg version="1" xmlns="http://www.w3.org/2000/svg" width="512" height="342" viewBox="0 0 5120 3420"><g fill="#f02e65"><path d="M1460 3413c-166-27-376-95-523-170-475-241-815-693-916-1216-30-155-30-479 0-634 59-307 214-616 422-840 243-264 510-420 887-520 86-23 118-26 340-30 220-4 255-3 346 16 149 31 336 94 447 151l97 50 98-50c110-57 297-120 446-151 91-19 126-20 346-16 222 4 254 7 340 30 310 82 529 194 740 377 293 255 496 605 569 983 30 155 30 479 0 634-59 307-215 617-424 842-241 261-509 418-885 518-86 23-118 26-340 30-220 4-255 3-346-16-149-31-336-94-446-151l-98-50-97 50c-110 57-298 120-444 150-81 17-133 20-316 19-120-1-229-4-243-6zm514-377c183-35 467-179 611-308 154-138 235-244 322-420 111-225 137-336 137-598s-26-373-137-598c-87-176-168-282-322-420-144-129-428-273-611-308-101-19-420-19-529 0-119 21-302 95-434 174-255 154-456 403-569 704-63 169-76 243-76 448s13 279 76 448c113 301 314 550 569 704 126 76 314 153 424 173 100 18 443 19 539 1z"/><path d="M1500 2128c0-7 26-123 59-258 135-553 179-740 180-767 1-9 25-13 86-13 47 0 85 3 85 8 0 15-109 485-197 850l-47 192h-83c-60 0-83-4-83-12zM1257 1806c-21-22-62-68-92-100-33-36-51-64-47-72 4-6 47-55 96-108l88-96h104c83 0 104 3 104 14 0 8-3 16-7 18-5 2-45 43-91 91l-82 89 26 31c14 18 55 62 90 98 35 37 64 70 64 73s-48 5-107 5l-108-1-38-42zM1900 1842c0-4 40-50 89-103l89-95-89-94c-48-52-88-101-89-107 0-10 27-13 103-13h103l85 93c46 50 89 99 96 108 10 13-3 31-84 117l-96 102h-103c-57 0-104-3-104-8z"/></g></svg>