<svg width="24" height="24" viewBox="-32 0 274 274" fill="none" xmlns="http://www.w3.org/2000/svg">
<defs>
<mask id="jaspr-mask"><rect x="-32" y="0" width="274" height="274" fill="white"/><path d="M83 194.5C95.5 235 110 240.5 122.5 253.5C150.5 232 163 192 154.5 173.5C143.5 178 134 185.5 132 194.5C112.5 184.5 106 166.5 112.5 146C125.452 156.462 145.091 156.952 166.761 157.494L167 157.5C187 158 191.5 143 193 137.5C194.5 132 196.5 124 193 119C179.622 103.295 143.065 107.948 145 81.5C146.5 61 138.5 52.5 134.5 46.5C130.5 40.5 124.5 36.5 121 37.5C117.5 38.5 119.2 46 121 50.5C125.135 60.8386 138.333 70.8257 139.5 82.5C141.95 107 115.073 117.463 97 126.5C75 140 66 163 65 181.5C64 205 73 219.5 81 228C79 219.5 77 204.5 83 194.5Z" fill="black"/><path d="M23.5 47.5C20.3 49.9 15.1667 54.1667 13 56L15 58.5C24 53 28.5 50.2 42.5 41C56.5 31.8 65.5 28 78.5 23.5L77 22C53.5 24 28.5 42 23.5 47.5Z" fill="black" fill-opacity="0.12"/><path d="M191.5 45L199.5 55.5L199 56L191 46.5C184 38.5 170.5 28.2035 151.5 21.5L152.5 20.5C160.5 23 182.5 32 191.5 45Z" fill="black" fill-opacity="0.12"/></mask>
</defs>
<g mask="url(#jaspr-mask)">
<path d="M63.9999 231L122.5 273.5C122.5 273.5 169 220.5 185 209L181.5 192L198.5 201C197 186.5 188.5 169.5 188.5 169.5C197 162 204.5 153.5 204.5 125.5C204.5 114 196.5 119.5 189.5 92.5L198 93.5C198 81.5 189 66.5 189 66.5L199.5 55.5L207.5 64C207.5 64 213 43 207.5 31C202 19 163 0 150.5 0C138 0 124 22 124 22H98.4999C98.4999 22 89.5 2.5 71 2.5C50.5001 2.5 10.5 25 4.49999 33.5C-1.50001 42 1.99992 65.5 1.99992 65.5L12.9999 56L25.4999 72.5C8.99992 92.5 -7.58171e-05 123.5 3.99992 158L17.4999 153C11.9999 164.5 10.4999 186.5 14.4999 204L29.4999 198C33.9999 214 47.4999 235 59.9999 244.5C60.4999 240 63.9999 231 63.9999 231Z" fill="#C4C6D7"/><path d="M163 125.5C163 133.5 168.5 139 180 139C187.5 139 194 135 193.5 126C193.5 122.5 191.5 118 186 118H171C166 118 163 121.5 163 125.5Z" fill="#C4C6D7"/><path d="M109.281 80.015C101.528 79.6946 96 84.5557 96 88.961C96 93.3663 100.954 101 109.281 101C117.609 101 123.886 97.7715 123.999 93.3663C124.112 88.961 117.035 80.3354 109.281 80.015Z" fill="#C4C6D7"/><path d="M162.957 80.645C158.105 83.1798 155.508 89.44 156.906 92.2618C158.304 95.0835 165.851 97.0356 171.288 94.1601C176.121 91.6042 177.861 82.4891 175.904 80.5952C173.946 78.7013 167.182 78.4376 162.957 80.645Z" fill="#C4C6D7"/><path d="M81 26.5C65 39 59.5 64.5 45 77L23.5 47.5C35 35.5 62 22.5 77 22L81 26.5Z" fill="#C4C6D7"/><path d="M152.5 20.5C175 28 187.5 39 191.5 45L183.5 55C176.5 44 166.5 34.5 146 26.5L152.5 20.5Z" fill="#C4C6D7"/><path d="M57.5 212.5C69 224.5 107 241 122.5 254C140.5 237 169 204 169 204C170.5 198.5 169 184.5 167.5 177.5L182.5 182C181 176.5 180 174 175.5 170C171 166 150.542 164.097 138 163.5C127.5 163 114.5 159 112.5 146C124 147 122 153.5 132.5 154.5L167.5 157C175.5 158 191.5 151 194.5 128.5L192.5 119C171 98 188.5 83 175.5 61.5C167.632 48.487 149 35.5 131.5 35.5H100C91 35.5 77 45.5 76 59.5C71 84 54.5 91 37.5 100.5C24 109 16.5 119.5 16.5 135.5L27.5 132C38.4097 112.908 53.7479 109.544 74 106C47 119 25.5 143 26.5 181L36 177.5C37.5 189 44 211.5 54.5 223L57.5 212.5Z" fill="#C4C6D7"/><path d="M172 88C172 90.7614 169.761 93 167 93C164.239 93 162 90.7614 162 88C162 85.2386 164.239 83 167 83C169.761 83 172 85.2386 172 88Z" fill="#C4C6D7"/><path d="M83 194.5C95.5 235 110 240.5 122.5 253.5C150.5 232 163 192 154.5 173.5C143.5 178 134 185.5 132 194.5C112.5 184.5 106 166.5 112.5 146C125.452 156.462 145.091 156.952 166.761 157.494L167 157.5C187 158 191.5 143 193 137.5C194.5 132 196.5 124 193 119C179.622 103.295 143.065 107.948 145 81.5C146.5 61 138.5 52.5 134.5 46.5C130.5 40.5 124.5 36.5 121 37.5C117.5 38.5 119.2 46 121 50.5C125.135 60.8386 138.333 70.8257 139.5 82.5C141.95 107 115.073 117.463 97 126.5C75 140 66 163 65 181.5C64 205 73 219.5 81 228C79 219.5 77 204.5 83 194.5Z" fill="#C4C6D7"/>
</g>
</svg>
