<svg xmlns="http://www.w3.org/2000/svg" xmlns:xlink="http://www.w3.org/1999/xlink" width="64" height="64" viewBox="0 0 45.025 44.217"><defs><clipPath id="A"><use xlink:href="#B"/></clipPath><path id="B" d="M0 0h191.356v57.344H0z"/></defs><path clip-path="url(#A)" d="M75.198 5.328c-1.872.047-2.977.863-3.34 2.42.48.418 1.126.6 1.77.572 1.415-.06 2.817-1.138 2.42-2.965-.298-.025-.582-.035-.85-.027M84.84 0h-.167c-1.335.043-1.542.767-4.425 1.477-2.912.717-5.725.028-8.86 1.344C62.025 6.748 60.03 20.293 51.52 25.1c-6.36 3.593-12.512 5.188-18.28 6.995-3.792 1.188-7.552 2.556-10.988 5.516-2.667 2.3-3.4 4.085-6.177 6.97-2.835 2.933-11.553-2.258-15.8 1.54a.84.84 0 0 0 .014 1.253c.92.805 2.67 2.722 4.336 3.314-.528 1-3.513 3.946-2.904 5.42.64 1.55 8.04.497 14.88-3.633 3.185-1.924 5.723-4.696 10.685-5.357 6.42-.855 13.817.55 21.25 1.62-1.103 3.286-3.315 5.473-5.088 8.1-.55.592 1.103.658 2.986.3 3.4-.838 5.832-1.513 8.4-3 3.143-1.83 3.62-6.52 7.474-7.534 1.864 2.865 6.5 3.83 10.074 2.3.198-.084.392-.177.582-.275.43-.375.178-.813-.086-1.135a6.21 6.21 0 0 1-.362-.364c-2.012-2.162-2.472-7.266-1.58-9.748 1.017-2.824 2.022-7.343 3.046-11.075 1.1-4 1.506-9.063 2.837-11.106 2.002-3.072 4.215-4.127 6.136-5.86s3.68-3.42 3.62-7.384C86.547.734 85.946.03 84.84 0m.204 4.163C84.647 6.897 82.9 8.4 80.836 9.85c-1.8 1.27-3.794 2.493-5.07 4.477-1.305 2.03-2.134 8.985-4.16 15.852-1.68 5.698-4.184 11.335-8.467 14.05-.278.176-.645.015-.704-.3-.3-1.592-.24-4.5-.734-3.56-.62 1.77-1.322 3.458-2.143 5.027-2.52 4.816-6.166 8.505-12.057 9.95a.53.53 0 0 1-.552-.82c2.718-3.77 5.15-7.825 5.447-14.014.025-.534-.646-.778-.983-.364-1.284 1.583-1.6 5.347-3.477 6.506-1.474.16-2.967.16-4.47.07-6.17-.37-12.502-2.226-18.274-.373-3.93 1.262-8.057 4.85-11.386 6.293C9.894 54.33 8.04 55.93 3.1 55.82c-.505-.68 2.062-3.623 2.934-4.893.278-.407-.317-.835-.874-1.1-1.338-.614-2.68-2.28-4.107-2.93.183-.337.83-.674 1.187-.88 3.24-1.88 11.832 2.124 14.14-.143 1.425-1.398 2.385-2.626 3.353-4.05.94-1.38 2.368-2.838 3.847-4.047a31.3 31.3 0 0 1 1.94-1.435c2.52-1.724 3.907-1.852 7.17-3.064 4.152-1.544 9.293-2.898 13.747-4.6 2.752-1.053 5.744-2.35 8.183-4.17.58-.432 1.127-.893 1.634-1.386 6.964-6.8 8.345-18.766 19.2-19.882 1.314-.135 2.248-.192 3.228-.223 1.096-.03 2.18-.3 3.263-.818.334-.146 2.324-1.35 2.996-.768.448.388.115 2.492.086 2.72" transform="matrix(.52012 0 0 .52012 0 7.19564)" fill="#444b5e"/></svg>