<svg xmlns="http://www.w3.org/2000/svg" xmlns:xlink="http://www.w3.org/1999/xlink" width="0" height="0" style="display:none;"><symbol id="icon-angle-circled-left"></symbol><symbol id="icon-angle-circled-right"></symbol><symbol viewBox="0 0 20 20" id="icon-archive"><path d="M13.981 2H6.018s-.996 0-.996 1h9.955c0-1-.996-1-.996-1zm2.987 3c0-1-.995-1-.995-1H4.027s-.995 0-.995 1v1h13.936V5zm1.99 1l-.588-.592V7H1.63V5.408L1.041 6C.452 6.592.03 6.75.267 8c.236 1.246 1.379 8.076 1.549 9 .186 1.014 1.217 1 1.217 1h13.936s1.03.014 1.217-1c.17-.924 1.312-7.754 1.549-9 .235-1.25-.187-1.408-.777-2zM14 11.997c0 .554-.449 1.003-1.003 1.003H7.003A1.003 1.003 0 0 1 6 11.997V10h1v2h6v-2h1v1.997z"></path></symbol><symbol id="icon-article"></symbol><symbol id="icon-asterisk"></symbol><symbol id="icon-bank"></symbol><symbol id="icon-bell"></symbol><symbol id="icon-binoculars"></symbol><symbol id="icon-bitbucket"></symbol><symbol id="icon-bold"></symbol><symbol id="icon-book-open"></symbol><symbol id="icon-boolean"></symbol><symbol viewBox="0 0 20 20" id="icon-briefcase"><path d="M9 10h2v2h9s-.149-4.459-.2-5.854C19.75 4.82 19.275 4 17.8 4h-3.208l-1.197-2.256C13.064 1.121 12.951 1 12.216 1H7.783c-.735 0-.847.121-1.179.744-.165.311-.7 1.318-1.196 2.256H2.199c-1.476 0-1.945.82-2 2.146C.145 7.473 0 12 0 12h9v-2zM7.649 2.916c.23-.432.308-.516.817-.516h3.067c.509 0 .588.084.816.516L12.924 4h-5.85l.575-1.084zM11 15H9v-2H.5s.124 1.797.199 3.322C.73 16.955.917 18 2.499 18H17.5c1.582 0 1.765-1.047 1.8-1.678.087-1.568.2-3.322.2-3.322H11v2z"></path></symbol><symbol id="icon-building-filled"></symbol><symbol id="icon-calendar"></symbol><symbol id="icon-cancel-circled"></symbol><symbol id="icon-cancel"></symbol><symbol id="icon-chart-area"></symbol><symbol id="icon-chat-alt"></symbol><symbol id="icon-check"></symbol><symbol id="icon-chevron-down"></symbol><symbol id="icon-clock"></symbol><symbol id="icon-code"></symbol><symbol id="icon-cog"></symbol><symbol id="icon-comment"></symbol><symbol id="icon-database"></symbol><symbol id="icon-dev"></symbol><symbol viewBox="0 -28.5 256 256" id="icon-discord"><path d="M216.856 16.597A208.502 208.502 0 0 0 164.042 0c-2.275 4.113-4.933 9.645-6.766 14.046-19.692-2.961-39.203-2.961-58.533 0-1.832-4.4-4.55-9.933-6.846-14.046a207.809 207.809 0 0 0-52.855 16.638C5.618 67.147-3.443 116.4 1.087 164.956c22.169 16.555 43.653 26.612 64.775 33.193A161.094 161.094 0 0 0 79.735 175.3a136.413 136.413 0 0 1-21.846-10.632 108.636 108.636 0 0 0 5.356-4.237c42.122 19.702 87.89 19.702 129.51 0a131.66 131.66 0 0 0 5.355 4.237 136.07 136.07 0 0 1-21.886 10.653c4.006 8.02 8.638 15.67 13.873 22.848 21.142-6.58 42.646-16.637 64.815-33.213 5.316-56.288-9.08-105.09-38.056-148.36ZM85.474 135.095c-12.645 0-23.015-11.805-23.015-26.18s10.149-26.2 23.015-26.2c12.867 0 23.236 11.804 23.015 26.2.02 14.375-10.148 26.18-23.015 26.18Zm85.051 0c-12.645 0-23.014-11.805-23.014-26.18s10.148-26.2 23.014-26.2c12.867 0 23.236 11.804 23.015 26.2 0 14.375-10.148 26.18-23.015 26.18Z" fill="#5865F2"></path></symbol><symbol id="icon-docs"></symbol><symbol viewBox="0 0 20 20" id="icon-dot-3"><path d="M10.001 7.8a2.2 2.2 0 1 0 0 4.402A2.2 2.2 0 0 0 10 7.8zm-7 0a2.2 2.2 0 1 0 0 4.402A2.2 2.2 0 0 0 3 7.8zm14 0a2.2 2.2 0 1 0 0 4.402A2.2 2.2 0 0 0 17 7.8z"></path></symbol><symbol id="icon-dot-circled"></symbol><symbol id="icon-down-dir"></symbol><symbol id="icon-down-open"></symbol><symbol viewBox="0 0 20 20" id="icon-download"><path d="M15 7h-3V1H8v6H5l5 5 5-5zm4.338 6.532c-.21-.224-1.611-1.723-2.011-2.114A1.503 1.503 0 0 0 16.285 11h-1.757l3.064 2.994h-3.544a.274.274 0 0 0-.24.133L12.992 16H7.008l-.816-1.873a.276.276 0 0 0-.24-.133H2.408L5.471 11H3.715c-.397 0-.776.159-1.042.418-.4.392-1.801 1.891-2.011 2.114-.489.521-.758.936-.63 1.449l.561 3.074c.128.514.691.936 1.252.936h16.312c.561 0 1.124-.422 1.252-.936l.561-3.074c.126-.513-.142-.928-.632-1.449z"></path></symbol><symbol id="icon-edit"></symbol><symbol viewBox="0 0 512 512" id="icon-enum"><!--! Font Awesome Pro 6.0.0 by @fontawesome - https://fontawesome.com License - https://fontawesome.com/license (Commercial License) Copyright 2022 Fonticons, Inc. --><path d="M88 48C101.3 48 112 58.75 112 72V120C112 133.3 101.3 144 88 144H40C26.75 144 16 133.3 16 120V72C16 58.75 26.75 48 40 48H88zM480 64C497.7 64 512 78.33 512 96C512 113.7 497.7 128 480 128H192C174.3 128 160 113.7 160 96C160 78.33 174.3 64 192 64H480zM480 224C497.7 224 512 238.3 512 256C512 273.7 497.7 288 480 288H192C174.3 288 160 273.7 160 256C160 238.3 174.3 224 192 224H480zM480 384C497.7 384 512 398.3 512 416C512 433.7 497.7 448 480 448H192C174.3 448 160 433.7 160 416C160 398.3 174.3 384 192 384H480zM16 232C16 218.7 26.75 208 40 208H88C101.3 208 112 218.7 112 232V280C112 293.3 101.3 304 88 304H40C26.75 304 16 293.3 16 280V232zM88 368C101.3 368 112 378.7 112 392V440C112 453.3 101.3 464 88 464H40C26.75 464 16 453.3 16 440V392C16 378.7 26.75 368 40 368H88z"></path></symbol><symbol viewBox="0 0 20 20" id="icon-export"><path d="M15 15H2V6h2.595s.689-.896 2.17-2H1a1 1 0 0 0-1 1v11a1 1 0 0 0 1 1h15a1 1 0 0 0 1-1v-3.746l-2 1.645V15zm-1.639-6.95v3.551L20 6.4l-6.639-4.999v3.131C5.3 4.532 5.3 12.5 5.3 12.5c2.282-3.748 3.686-4.45 8.061-4.45z"></path></symbol><symbol viewBox="0 0 20 20" id="icon-eye"><path d="M10 4.4C3.439 4.4 0 9.232 0 10c0 .766 3.439 5.6 10 5.6 6.56 0 10-4.834 10-5.6 0-.768-3.44-5.6-10-5.6zm0 9.907c-2.455 0-4.445-1.928-4.445-4.307S7.545 5.691 10 5.691s4.444 1.93 4.444 4.309-1.989 4.307-4.444 4.307zM10 10c-.407-.447.663-2.154 0-2.154-1.228 0-2.223.965-2.223 2.154s.995 2.154 2.223 2.154c1.227 0 2.223-.965 2.223-2.154 0-.547-1.877.379-2.223 0z"></path></symbol><symbol id="icon-facebook"></symbol><symbol id="icon-filter"></symbol><symbol id="icon-fire"></symbol><symbol id="icon-float"></symbol><symbol viewBox="0 0 20 20" id="icon-folder"><path d="M18.405 4.799c-.111-.44-.655-.799-1.21-.799h-6.814c-.554 0-1.33-.318-1.722-.707l-.596-.588C7.671 2.316 6.896 2 6.342 2H3.087c-.555 0-1.059.447-1.12.994L1.675 6h16.931l-.201-1.201zM19.412 7H.588a.58.58 0 0 0-.577.635l.923 9.669A.77.77 0 0 0 1.7 18h16.6a.77.77 0 0 0 .766-.696l.923-9.669A.58.58 0 0 0 19.412 7z"></path></symbol><symbol id="icon-github"></symbol><symbol id="icon-gitlab"></symbol><symbol id="icon-glasses"></symbol><symbol id="icon-google"></symbol><symbol id="icon-hackernews"></symbol><symbol id="icon-header"></symbol><symbol id="icon-heart"></symbol><symbol id="icon-home"></symbol><symbol viewBox="0 0 20 20" id="icon-image"><path d="M19 2H1a1 1 0 0 0-1 1v14a1 1 0 0 0 1 1h18a1 1 0 0 0 1-1V3a1 1 0 0 0-1-1zm-1 14H2V4h16v12zm-3.685-5.123l-3.231 1.605-3.77-6.101L4 14h12l-1.685-3.123zM13.25 9a1.25 1.25 0 1 0 0-2.5 1.25 1.25 0 0 0 0 2.5z"></path></symbol><symbol id="icon-inbox"></symbol><symbol viewBox="0 0 20 20" id="icon-info-circled"><path d="M10 .4C4.697.4.399 4.698.399 10A9.6 9.6 0 0 0 10 19.601c5.301 0 9.6-4.298 9.6-9.601 0-5.302-4.299-9.6-9.6-9.6zm.896 3.466c.936 0 1.211.543 1.211 1.164 0 .775-.62 1.492-1.679 1.492-.886 0-1.308-.445-1.282-1.182 0-.621.519-1.474 1.75-1.474zM8.498 15.75c-.64 0-1.107-.389-.66-2.094l.733-3.025c.127-.484.148-.678 0-.678-.191 0-1.022.334-1.512.664l-.319-.523c1.555-1.299 3.343-2.061 4.108-2.061.64 0 .746.756.427 1.92l-.84 3.18c-.149.562-.085.756.064.756.192 0 .82-.232 1.438-.719l.362.486c-1.513 1.512-3.162 2.094-3.801 2.094z"></path></symbol><symbol id="icon-instagram"></symbol><symbol id="icon-integer"></symbol><symbol id="icon-ip"></symbol><symbol id="icon-italic"></symbol><symbol id="icon-key-inv"></symbol><symbol id="icon-key"></symbol><symbol id="icon-keyboard"></symbol><symbol viewBox="0 0 20 20" id="icon-lamp"><path d="M7.186 19.172c.789.51 1.701.855 2.814.828 1.111.027 2.025-.318 2.814-.828L12.797 17H7.203l-.017 2.172zM12.697 16c0-4.357 4.63-5.848 4.283-10.188-.218-2.738-2.073-5.81-6.98-5.81S3.238 3.074 3.019 5.813C2.672 10.152 7.303 11.643 7.303 16h5.394zM5 6c.207-2.598 2.113-4 5-4 2.886 0 4.654 1.371 4.861 3.969.113 1.424-.705 2.373-1.809 3.926C12.238 11.041 11.449 12.238 11 14H9c-.449-1.762-1.238-2.959-2.053-4.106C5.844 8.342 4.886 7.424 5 6z"></path></symbol><symbol id="icon-left-dir"></symbol><symbol id="icon-left-open"></symbol><symbol id="icon-lifebuoy"></symbol><symbol id="icon-lightning"></symbol><symbol id="icon-link-ext"></symbol><symbol id="icon-link"></symbol><symbol id="icon-linkedin"></symbol><symbol id="icon-list-bullet"></symbol><symbol id="icon-list-numbered"></symbol><symbol viewBox="0 0 512 512" id="icon-list"><!--! Font Awesome Pro 6.0.0 by @fontawesome - https://fontawesome.com License - https://fontawesome.com/license (Commercial License) Copyright 2022 Fonticons, Inc. --><path d="M88 48C101.3 48 112 58.75 112 72V120C112 133.3 101.3 144 88 144H40C26.75 144 16 133.3 16 120V72C16 58.75 26.75 48 40 48H88zM480 64C497.7 64 512 78.33 512 96C512 113.7 497.7 128 480 128H192C174.3 128 160 113.7 160 96C160 78.33 174.3 64 192 64H480zM480 224C497.7 224 512 238.3 512 256C512 273.7 497.7 288 480 288H192C174.3 288 160 273.7 160 256C160 238.3 174.3 224 192 224H480zM480 384C497.7 384 512 398.3 512 416C512 433.7 497.7 448 480 448H192C174.3 448 160 433.7 160 416C160 398.3 174.3 384 192 384H480zM16 232C16 218.7 26.75 208 40 208H88C101.3 208 112 218.7 112 232V280C112 293.3 101.3 304 88 304H40C26.75 304 16 293.3 16 280V232zM88 368C101.3 368 112 378.7 112 392V440C112 453.3 101.3 464 88 464H40C26.75 464 16 453.3 16 440V392C16 378.7 26.75 368 40 368H88z"></path></symbol><symbol id="icon-location"></symbol><symbol id="icon-lock"></symbol><symbol id="icon-login"></symbol><symbol viewBox="0 0 20 20" id="icon-mail"><path d="M1.574 5.286l7.5 4.029c.252.135.578.199.906.199.328 0 .654-.064.906-.199l7.5-4.029c.489-.263.951-1.286.054-1.286H1.521c-.897 0-.435 1.023.053 1.286zm17.039 2.203l-7.727 4.027c-.34.178-.578.199-.906.199s-.566-.021-.906-.199-7.133-3.739-7.688-4.028C.996 7.284 1 7.523 1 7.707V15c0 .42.566 1 1 1h16c.434 0 1-.58 1-1V7.708c0-.184.004-.423-.387-.219z"></path></symbol><symbol id="icon-medium"></symbol><symbol id="icon-menu"></symbol><symbol id="icon-minus"></symbol><symbol id="icon-moon-inv"></symbol><symbol id="icon-more"></symbol><symbol viewBox="0 0 20 20" id="icon-network"><path d="M5.274 6.915c.2 0 .394.029.576.086a15.774 15.774 0 0 1 2.283-2.1 1.954 1.954 0 0 1 .048-1.076A14.407 14.407 0 0 0 5.17 2.171a9.25 9.25 0 0 0-2.582 2.381c.519.92 1.136 1.777 1.838 2.557.256-.124.543-.194.848-.194zM3.316 8.872c0-.275.058-.537.159-.773A15.91 15.91 0 0 1 1.78 5.87a9.165 9.165 0 0 0-.98 4.131 9.16 9.16 0 0 0 1.295 4.705 15.614 15.614 0 0 1 1.62-4.652 1.947 1.947 0 0 1-.399-1.182zm6.72-6.383c.517 0 .985.201 1.336.529a15.578 15.578 0 0 1 3.215-.992A9.154 9.154 0 0 0 10 .8a9.167 9.167 0 0 0-3.236.588 15.76 15.76 0 0 1 2.277 1.375c.292-.174.631-.274.995-.274zm2.926 9.219a1.94 1.94 0 0 1 .509-.656 14.336 14.336 0 0 0-2.672-4.803 1.956 1.956 0 0 1-1.901-.211 14.343 14.343 0 0 0-1.964 1.803 1.93 1.93 0 0 1 .207 1.617 14.252 14.252 0 0 0 5.821 2.25zm2.539 2.643a15.872 15.872 0 0 1-.081 3.082 9.216 9.216 0 0 0 3.347-4.639 15.39 15.39 0 0 1-2.181.365 1.958 1.958 0 0 1-1.085 1.192zm-2.997-1.327a15.643 15.643 0 0 1-6.21-2.484 1.953 1.953 0 0 1-1.423.248 14.219 14.219 0 0 0-1.599 5.484 9.203 9.203 0 0 0 3.145 2.205 15.662 15.662 0 0 1 6.087-5.453zm3.672-9.843a14.296 14.296 0 0 0-4.193 1.068 1.946 1.946 0 0 1-.191 1.056 15.68 15.68 0 0 1 2.969 5.291 1.961 1.961 0 0 1 1.77 1.195c.886-.09 1.748-.26 2.578-.504a9.178 9.178 0 0 0-2.933-8.106zm-2.687 10.888a14.291 14.291 0 0 0-5.723 4.856A9.187 9.187 0 0 0 10 19.2a9.165 9.165 0 0 0 3.882-.859c.19-.928.29-1.887.29-2.869 0-.355-.016-.707-.043-1.055a1.923 1.923 0 0 1-.64-.348z"></path></symbol><symbol id="icon-ok-circled"></symbol><symbol id="icon-ok"></symbol><symbol viewBox="0 0 20 20" id="icon-palette"><path d="M15.74 2.608c-3.528-1.186-7.066-.961-10.72 1.274C2.167 5.625.302 9.958.917 13.064c.728 3.671 4.351 5.995 9.243 4.651 5.275-1.449 6.549-4.546 6.379-5.334s-2.665-1.652-1.718-3.498c1.188-2.313 3.129-1.149 3.982-1.622.855-.472.539-3.442-3.063-4.653zm-3.646 10.706a1.504 1.504 0 0 1-1.843-1.059 1.5 1.5 0 0 1 1.046-1.849 1.503 1.503 0 0 1 1.843 1.059 1.501 1.501 0 0 1-1.046 1.849z"></path></symbol><symbol id="icon-pause"></symbol><symbol id="icon-phone"></symbol><symbol viewBox="0 0 20 20" id="icon-picture"><path d="M19 2H1a1 1 0 0 0-1 1v14a1 1 0 0 0 1 1h18a1 1 0 0 0 1-1V3a1 1 0 0 0-1-1zm-1 14H2V4h16v12zm-3.685-5.123l-3.231 1.605-3.77-6.101L4 14h12l-1.685-3.123zM13.25 9a1.25 1.25 0 1 0 0-2.5 1.25 1.25 0 0 0 0 2.5z"></path></symbol><symbol id="icon-pinterest"></symbol><symbol id="icon-play"></symbol><symbol id="icon-plus"></symbol><symbol id="icon-qrcode"></symbol><symbol id="icon-question"></symbol><symbol id="icon-quote-right"></symbol><symbol id="icon-reddit"></symbol><symbol id="icon-right-dir"></symbol><symbol id="icon-right-open"></symbol><symbol id="icon-rocket"></symbol><symbol id="icon-search"></symbol><symbol id="icon-shield"></symbol><symbol id="icon-shuffle"></symbol><symbol id="icon-smile-o"></symbol><symbol id="icon-sort"></symbol><symbol id="icon-stackoverflow"></symbol><symbol viewBox="0 0 24 24" id="icon-stopwatch"><g><path d="M19.414 8.902c.104-.048.206-.108.293-.195l.5-.5c.391-.391.391-1.023 0-1.414s-1.023-.391-1.414 0l-.5.5-.115.173c-1.387-1.312-3.188-2.19-5.189-2.41l.011-.056v-1h1c.55 0 1-.45 1-1s-.45-1-1-1h-4c-.55 0-1 .45-1 1s.45 1 1 1h1v1l.012.057c-4.506.492-8.012 4.307-8.012 8.943 0 4.971 4.029 9 9 9s9-4.029 9-9c0-1.894-.588-3.648-1.586-5.098zm-7.414 12.098c-3.859 0-7-3.14-7-7s3.141-7 7-7 7 3.14 7 7-3.141 7-7 7zM13 13v-2c0-.55-.45-1-1-1s-1 .45-1 1v3c0 .55.45 1 1 1h3c.55 0 1-.45 1-1s-.45-1-1-1h-2zM12 8c-3.312 0-6 2.688-6 6s2.688 6 6 6 6-2.688 6-6-2.688-6-6-6zm0 11c-2.757 0-5-2.243-5-5s2.243-5 5-5 5 2.243 5 5-2.243 5-5 5z"></path></g></symbol><symbol id="icon-string"></symbol><symbol id="icon-sun-inv"></symbol><symbol id="icon-telegram"></symbol><symbol viewBox="0 0 20 20" id="icon-trash-2">
<path d="M8.33301 9.16667V14.1667M11.6663 9.16667V14.1667M3.33301 5.83333H16.6663M15.833 5.83333L15.1105 15.9517C15.0806 16.3722 14.8924 16.7657 14.5839 17.053C14.2755 17.3403 13.8696 17.5 13.448 17.5H6.55134C6.12979 17.5 5.7239 17.3403 5.41541 17.053C5.10693 16.7657 4.91877 16.3722 4.88884 15.9517L4.16634 5.83333H15.833ZM12.4997 5.83333V3.33333C12.4997 3.11232 12.4119 2.90036 12.2556 2.74408C12.0993 2.5878 11.8874 2.5 11.6663 2.5H8.33301C8.11199 2.5 7.90003 2.5878 7.74375 2.74408C7.58747 2.90036 7.49967 3.11232 7.49967 3.33333V5.83333H12.4997Z" stroke="#9F9F9F" stroke-width="2" stroke-linecap="round" stroke-linejoin="round"></path>
</symbol><symbol id="icon-trash"></symbol><symbol id="icon-twitter"></symbol><symbol id="icon-underline"></symbol><symbol id="icon-up-dir"></symbol><symbol id="icon-up-open"></symbol><symbol id="icon-upload"></symbol><symbol viewBox="0 0 448 512" id="icon-user"><!--! Font Awesome Pro 6.0.0 by @fontawesome - https://fontawesome.com License - https://fontawesome.com/license (Commercial License) Copyright 2022 Fonticons, Inc. --><path d="M224 256c70.7 0 128-57.31 128-128s-57.3-128-128-128C153.3 0 96 57.31 96 128S153.3 256 224 256zM274.7 304H173.3C77.61 304 0 381.6 0 477.3c0 19.14 15.52 34.67 34.66 34.67h378.7C432.5 512 448 496.5 448 477.3C448 381.6 370.4 304 274.7 304z"></path></symbol><symbol id="icon-users"></symbol><symbol id="icon-videocam"></symbol><symbol viewBox="0 0 24 24" id="icon-warning"><path d="M21.171 15.398l-5.912-9.854c-.776-1.293-1.963-2.033-3.259-2.033s-2.483.74-3.259 2.031l-5.912 9.856c-.786 1.309-.872 2.705-.235 3.83.636 1.126 1.878 1.772 3.406 1.772h12c1.528 0 2.77-.646 3.406-1.771.637-1.125.551-2.521-.235-3.831zm-9.171 2.151c-.854 0-1.55-.695-1.55-1.549 0-.855.695-1.551 1.55-1.551s1.55.696 1.55 1.551c0 .854-.696 1.549-1.55 1.549zm1.633-7.424c-.011.031-1.401 3.468-1.401 3.468-.038.094-.13.156-.231.156s-.193-.062-.231-.156l-1.391-3.438c-.09-.233-.129-.443-.129-.655 0-.965.785-1.75 1.75-1.75s1.75.785 1.75 1.75c0 .212-.039.422-.117.625z"></path></symbol><symbol id="icon-whatsapp"></symbol><symbol id="icon-wheelchair"></symbol><symbol id="icon-windows"></symbol><symbol id="icon-wrench"></symbol><symbol id="icon-x"></symbol><symbol id="icon-youtube-play"></symbol></svg>