<svg xmlns="http://www.w3.org/2000/svg" xmlns:xlink="http://www.w3.org/1999/xlink" width="0" height="0" style="display:none;"><symbol id="icon-angle-circled-left"></symbol><symbol id="icon-angle-circled-right"></symbol><symbol viewBox="0 0 20 20" id="icon-archive"><path d="M13.981 2H6.018s-.996 0-.996 1h9.955c0-1-.996-1-.996-1zm2.987 3c0-1-.995-1-.995-1H4.027s-.995 0-.995 1v1h13.936V5zm1.99 1l-.588-.592V7H1.63V5.408L1.041 6C.452 6.592.03 6.75.267 8c.236 1.246 1.379 8.076 1.549 9 .186 1.014 1.217 1 1.217 1h13.936s1.03.014 1.217-1c.17-.924 1.312-7.754 1.549-9 .235-1.25-.187-1.408-.777-2zM14 11.997c0 .554-.449 1.003-1.003 1.003H7.003A1.003 1.003 0 0 1 6 11.997V10h1v2h6v-2h1v1.997z"></path></symbol><symbol id="icon-article"></symbol><symbol id="icon-asterisk"></symbol><symbol id="icon-bank"></symbol><symbol id="icon-bell"></symbol><symbol id="icon-binoculars"></symbol><symbol id="icon-bitbucket"></symbol><symbol id="icon-bold"></symbol><symbol id="icon-book-open"></symbol><symbol id="icon-boolean"></symbol><symbol viewBox="0 0 20 20" id="icon-briefcase"><path d="M9 10h2v2h9s-.149-4.459-.2-5.854C19.75 4.82 19.275 4 17.8 4h-3.208l-1.197-2.256C13.064 1.121 12.951 1 12.216 1H7.783c-.735 0-.847.121-1.179.744-.165.311-.7 1.318-1.196 2.256H2.199c-1.476 0-1.945.82-2 2.146C.145 7.473 0 12 0 12h9v-2zM7.649 2.916c.23-.432.308-.516.817-.516h3.067c.509 0 .588.084.816.516L12.924 4h-5.85l.575-1.084zM11 15H9v-2H.5s.124 1.797.199 3.322C.73 16.955.917 18 2.499 18H17.5c1.582 0 1.765-1.047 1.8-1.678.087-1.568.2-3.322.2-3.322H11v2z"></path></symbol><symbol id="icon-building-filled"></symbol><symbol id="icon-calendar"></symbol><symbol id="icon-cancel-circled"></symbol><symbol id="icon-cancel"></symbol><symbol id="icon-chart-area"></symbol><symbol id="icon-chat-alt"></symbol><symbol id="icon-check"></symbol><symbol id="icon-chevron-down"></symbol><symbol id="icon-clock"></symbol><symbol id="icon-code"></symbol><symbol id="icon-cog"></symbol><symbol id="icon-comment"></symbol><symbol id="icon-database"></symbol><symbol id="icon-dev"></symbol><symbol id="icon-discord"></symbol><symbol id="icon-docs"></symbol><symbol id="icon-dot-3">
  <g>
    <path d="M110 390c30.667 0 56.667 10.667 78 32c21.333 21.333 32 47.333 32 78c0 29.333 -10.667 55 -32 77c-21.333 22 -47.333 33 -78 33c-30.667 0 -56.667 -11 -78 -33c-21.333 -22 -32 -47.667 -32 -77c0 -30.667 10.667 -56.667 32 -78c21.333 -21.333 47.333 -32 78 -32c0 0 0 0 0 0m350 0c30.667 0 56.667 10.667 78 32c21.333 21.333 32 47.333 32 78c0 29.333 -11 55 -33 77c-22 22 -47.667 33 -77 33c-29.333 0 -55 -11 -77 -33c-22 -22 -33 -47.667 -33 -77c0 -30.667 10.667 -56.667 32 -78c21.333 -21.333 47.333 -32 78 -32c0 0 0 0 0 0m350 0c30.667 0 56.667 10.667 78 32c21.333 21.333 32 47.333 32 78c0 29.333 -10.667 55 -32 77c-21.333 22 -47.333 33 -78 33c-30.667 0 -56.667 -11 -78 -33c-21.333 -22 -32 -47.667 -32 -77c0 -30.667 10.667 -56.667 32 -78c21.333 -21.333 47.333 -32 78 -32c0 0 0 0 0 0"></path>
  </g>
</symbol><symbol id="icon-dot-circled"></symbol><symbol id="icon-double"></symbol><symbol id="icon-down-dir"></symbol><symbol id="icon-down-open"></symbol><symbol viewBox="0 0 20 20" id="icon-download"><path d="M15 7h-3V1H8v6H5l5 5 5-5zm4.338 6.532c-.21-.224-1.611-1.723-2.011-2.114A1.503 1.503 0 0 0 16.285 11h-1.757l3.064 2.994h-3.544a.274.274 0 0 0-.24.133L12.992 16H7.008l-.816-1.873a.276.276 0 0 0-.24-.133H2.408L5.471 11H3.715c-.397 0-.776.159-1.042.418-.4.392-1.801 1.891-2.011 2.114-.489.521-.758.936-.63 1.449l.561 3.074c.128.514.691.936 1.252.936h16.312c.561 0 1.124-.422 1.252-.936l.561-3.074c.126-.513-.142-.928-.632-1.449z"></path></symbol><symbol id="icon-edit"></symbol><symbol id="icon-enum"></symbol><symbol viewBox="0 0 20 20" id="icon-export"><path d="M15 15H2V6h2.595s.689-.896 2.17-2H1a1 1 0 0 0-1 1v11a1 1 0 0 0 1 1h15a1 1 0 0 0 1-1v-3.746l-2 1.645V15zm-1.639-6.95v3.551L20 6.4l-6.639-4.999v3.131C5.3 4.532 5.3 12.5 5.3 12.5c2.282-3.748 3.686-4.45 8.061-4.45z"></path></symbol><symbol viewBox="0 0 20 20" id="icon-eye"><path d="M10 4.4C3.439 4.4 0 9.232 0 10c0 .766 3.439 5.6 10 5.6 6.56 0 10-4.834 10-5.6 0-.768-3.44-5.6-10-5.6zm0 9.907c-2.455 0-4.445-1.928-4.445-4.307S7.545 5.691 10 5.691s4.444 1.93 4.444 4.309-1.989 4.307-4.444 4.307zM10 10c-.407-.447.663-2.154 0-2.154-1.228 0-2.223.965-2.223 2.154s.995 2.154 2.223 2.154c1.227 0 2.223-.965 2.223-2.154 0-.547-1.877.379-2.223 0z"></path></symbol><symbol id="icon-facebook"></symbol><symbol viewBox="0 0 20 20" id="icon-file">
<path fill-rule="evenodd" clip-rule="evenodd" d="M4.58579 2.58579C4.21071 2.96086 4 3.46957 4 4V16C4 16.5304 4.21071 17.0391 4.58579 17.4142C4.96086 17.7893 5.46957 18 6 18H14C14.5304 18 15.0391 17.7893 15.4142 17.4142C15.7893 17.0391 16 16.5304 16 16V8.71429H12.2C11.0954 8.71429 10.2 7.81885 10.2 6.71428V2H6C5.46957 2 4.96086 2.21071 4.58579 2.58579ZM12.2 2.786V6.71428L15.8734 6.71429C15.7741 6.44856 15.6185 6.20442 15.414 6L12.2 2.786Z" fill="#9CA3AF"></path>
</symbol><symbol viewBox="0 0 20 20" id="icon-film">
<path fill-rule="evenodd" clip-rule="evenodd" d="M4 3C3.46957 3 2.96086 3.21071 2.58579 3.58579C2.21071 3.96086 2 4.46957 2 5V15C2 15.5304 2.21071 16.0391 2.58579 16.4142C2.96086 16.7893 3.46957 17 4 17H16C16.5304 17 17.0391 16.7893 17.4142 16.4142C17.7893 16.0391 18 15.5304 18 15V5C18 4.46957 17.7893 3.96086 17.4142 3.58579C17.0391 3.21071 16.5304 3 16 3H4ZM7 5H13V9H7V5ZM15 13V15H16V13H15ZM13 11H7V15H13V11ZM15 11H16V9H15V11ZM16 7V5H15V7H16ZM5 5V7H4V5H5ZM5 9H4V11H5V9ZM4 13H5V15H4V13Z" fill="#9CA3AF"></path>
</symbol><symbol id="icon-filter"></symbol><symbol id="icon-fire"></symbol><symbol id="icon-float"></symbol><symbol viewBox="0 0 20 20" id="icon-folder"><path d="M18.405 4.799c-.111-.44-.655-.799-1.21-.799h-6.814c-.554 0-1.33-.318-1.722-.707l-.596-.588C7.671 2.316 6.896 2 6.342 2H3.087c-.555 0-1.059.447-1.12.994L1.675 6h16.931l-.201-1.201zM19.412 7H.588a.58.58 0 0 0-.577.635l.923 9.669A.77.77 0 0 0 1.7 18h16.6a.77.77 0 0 0 .766-.696l.923-9.669A.58.58 0 0 0 19.412 7z"></path></symbol><symbol id="icon-github"></symbol><symbol id="icon-gitlab"></symbol><symbol id="icon-glasses"></symbol><symbol id="icon-google"></symbol><symbol id="icon-hackernews"></symbol><symbol id="icon-header"></symbol><symbol id="icon-heart"></symbol><symbol id="icon-home"></symbol><symbol viewBox="0 0 20 20" id="icon-image"><path d="M19 2H1a1 1 0 0 0-1 1v14a1 1 0 0 0 1 1h18a1 1 0 0 0 1-1V3a1 1 0 0 0-1-1zm-1 14H2V4h16v12zm-3.685-5.123l-3.231 1.605-3.77-6.101L4 14h12l-1.685-3.123zM13.25 9a1.25 1.25 0 1 0 0-2.5 1.25 1.25 0 0 0 0 2.5z"></path></symbol><symbol id="icon-inbox"></symbol><symbol viewBox="0 0 20 20" id="icon-info-circled"><path d="M10 .4C4.697.4.399 4.698.399 10A9.6 9.6 0 0 0 10 19.601c5.301 0 9.6-4.298 9.6-9.601 0-5.302-4.299-9.6-9.6-9.6zm.896 3.466c.936 0 1.211.543 1.211 1.164 0 .775-.62 1.492-1.679 1.492-.886 0-1.308-.445-1.282-1.182 0-.621.519-1.474 1.75-1.474zM8.498 15.75c-.64 0-1.107-.389-.66-2.094l.733-3.025c.127-.484.148-.678 0-.678-.191 0-1.022.334-1.512.664l-.319-.523c1.555-1.299 3.343-2.061 4.108-2.061.64 0 .746.756.427 1.92l-.84 3.18c-.149.562-.085.756.064.756.192 0 .82-.232 1.438-.719l.362.486c-1.513 1.512-3.162 2.094-3.801 2.094z"></path></symbol><symbol id="icon-instagram"></symbol><symbol id="icon-integer"></symbol><symbol id="icon-ip"></symbol><symbol id="icon-italic"></symbol><symbol id="icon-key-inv"></symbol><symbol id="icon-key"></symbol><symbol id="icon-keyboard"></symbol><symbol viewBox="0 0 20 20" id="icon-lamp"><path d="M7.186 19.172c.789.51 1.701.855 2.814.828 1.111.027 2.025-.318 2.814-.828L12.797 17H7.203l-.017 2.172zM12.697 16c0-4.357 4.63-5.848 4.283-10.188-.218-2.738-2.073-5.81-6.98-5.81S3.238 3.074 3.019 5.813C2.672 10.152 7.303 11.643 7.303 16h5.394zM5 6c.207-2.598 2.113-4 5-4 2.886 0 4.654 1.371 4.861 3.969.113 1.424-.705 2.373-1.809 3.926C12.238 11.041 11.449 12.238 11 14H9c-.449-1.762-1.238-2.959-2.053-4.106C5.844 8.342 4.886 7.424 5 6z"></path></symbol><symbol id="icon-left-dir"></symbol><symbol id="icon-left-open"></symbol><symbol id="icon-lifebuoy"></symbol><symbol id="icon-lightning"></symbol><symbol id="icon-link-ext"></symbol><symbol id="icon-link"></symbol><symbol id="icon-linkedin"></symbol><symbol id="icon-list-bullet"></symbol><symbol id="icon-list-numbered"></symbol><symbol viewBox="0 0 512 512" id="icon-list"><!--! Font Awesome Pro 6.0.0 by @fontawesome - https://fontawesome.com License - https://fontawesome.com/license (Commercial License) Copyright 2022 Fonticons, Inc. --><path d="M88 48C101.3 48 112 58.75 112 72V120C112 133.3 101.3 144 88 144H40C26.75 144 16 133.3 16 120V72C16 58.75 26.75 48 40 48H88zM480 64C497.7 64 512 78.33 512 96C512 113.7 497.7 128 480 128H192C174.3 128 160 113.7 160 96C160 78.33 174.3 64 192 64H480zM480 224C497.7 224 512 238.3 512 256C512 273.7 497.7 288 480 288H192C174.3 288 160 273.7 160 256C160 238.3 174.3 224 192 224H480zM480 384C497.7 384 512 398.3 512 416C512 433.7 497.7 448 480 448H192C174.3 448 160 433.7 160 416C160 398.3 174.3 384 192 384H480zM16 232C16 218.7 26.75 208 40 208H88C101.3 208 112 218.7 112 232V280C112 293.3 101.3 304 88 304H40C26.75 304 16 293.3 16 280V232zM88 368C101.3 368 112 378.7 112 392V440C112 453.3 101.3 464 88 464H40C26.75 464 16 453.3 16 440V392C16 378.7 26.75 368 40 368H88z"></path></symbol><symbol id="icon-location"></symbol><symbol id="icon-lock"></symbol><symbol id="icon-login"></symbol><symbol viewBox="0 0 20 20" id="icon-mail"><path d="M1.574 5.286l7.5 4.029c.252.135.578.199.906.199.328 0 .654-.064.906-.199l7.5-4.029c.489-.263.951-1.286.054-1.286H1.521c-.897 0-.435 1.023.053 1.286zm17.039 2.203l-7.727 4.027c-.34.178-.578.199-.906.199s-.566-.021-.906-.199-7.133-3.739-7.688-4.028C.996 7.284 1 7.523 1 7.707V15c0 .42.566 1 1 1h16c.434 0 1-.58 1-1V7.708c0-.184.004-.423-.387-.219z"></path></symbol><symbol id="icon-medium"></symbol><symbol id="icon-menu"></symbol><symbol id="icon-minus"></symbol><symbol id="icon-moon-inv"></symbol><symbol viewBox="0 0 20 20" id="icon-moon">
<path d="M17.293 13.293C15.8115 13.9631 14.161 14.1659 12.5614 13.8743C10.9617 13.5827 9.48895 12.8106 8.33919 11.6609C7.18944 10.5111 6.41734 9.0383 6.12574 7.43866C5.83415 5.83903 6.03691 4.18852 6.70701 2.70703C5.52758 3.24004 4.49505 4.05123 3.69802 5.07099C2.90099 6.09075 2.36324 7.28865 2.13092 8.56192C1.8986 9.83518 1.97864 11.1458 2.36417 12.3813C2.7497 13.6169 3.42922 14.7404 4.34442 15.6556C5.25961 16.5708 6.38318 17.2503 7.61871 17.6359C8.85424 18.0214 10.1649 18.1014 11.4381 17.8691C12.7114 17.6368 13.9093 17.0991 14.9291 16.302C15.9488 15.505 16.76 14.4725 17.293 13.293Z" fill="#9CA3AF"></path>
</symbol><symbol id="icon-more"></symbol><symbol viewBox="0 0 20 20" id="icon-network"><path d="M5.274 6.915c.2 0 .394.029.576.086a15.774 15.774 0 0 1 2.283-2.1 1.954 1.954 0 0 1 .048-1.076A14.407 14.407 0 0 0 5.17 2.171a9.25 9.25 0 0 0-2.582 2.381c.519.92 1.136 1.777 1.838 2.557.256-.124.543-.194.848-.194zM3.316 8.872c0-.275.058-.537.159-.773A15.91 15.91 0 0 1 1.78 5.87a9.165 9.165 0 0 0-.98 4.131 9.16 9.16 0 0 0 1.295 4.705 15.614 15.614 0 0 1 1.62-4.652 1.947 1.947 0 0 1-.399-1.182zm6.72-6.383c.517 0 .985.201 1.336.529a15.578 15.578 0 0 1 3.215-.992A9.154 9.154 0 0 0 10 .8a9.167 9.167 0 0 0-3.236.588 15.76 15.76 0 0 1 2.277 1.375c.292-.174.631-.274.995-.274zm2.926 9.219a1.94 1.94 0 0 1 .509-.656 14.336 14.336 0 0 0-2.672-4.803 1.956 1.956 0 0 1-1.901-.211 14.343 14.343 0 0 0-1.964 1.803 1.93 1.93 0 0 1 .207 1.617 14.252 14.252 0 0 0 5.821 2.25zm2.539 2.643a15.872 15.872 0 0 1-.081 3.082 9.216 9.216 0 0 0 3.347-4.639 15.39 15.39 0 0 1-2.181.365 1.958 1.958 0 0 1-1.085 1.192zm-2.997-1.327a15.643 15.643 0 0 1-6.21-2.484 1.953 1.953 0 0 1-1.423.248 14.219 14.219 0 0 0-1.599 5.484 9.203 9.203 0 0 0 3.145 2.205 15.662 15.662 0 0 1 6.087-5.453zm3.672-9.843a14.296 14.296 0 0 0-4.193 1.068 1.946 1.946 0 0 1-.191 1.056 15.68 15.68 0 0 1 2.969 5.291 1.961 1.961 0 0 1 1.77 1.195c.886-.09 1.748-.26 2.578-.504a9.178 9.178 0 0 0-2.933-8.106zm-2.687 10.888a14.291 14.291 0 0 0-5.723 4.856A9.187 9.187 0 0 0 10 19.2a9.165 9.165 0 0 0 3.882-.859c.19-.928.29-1.887.29-2.869 0-.355-.016-.707-.043-1.055a1.923 1.923 0 0 1-.64-.348z"></path></symbol><symbol id="icon-ok-circled"></symbol><symbol id="icon-ok"></symbol><symbol viewBox="0 0 20 20" id="icon-palette"><path d="M15.74 2.608c-3.528-1.186-7.066-.961-10.72 1.274C2.167 5.625.302 9.958.917 13.064c.728 3.671 4.351 5.995 9.243 4.651 5.275-1.449 6.549-4.546 6.379-5.334s-2.665-1.652-1.718-3.498c1.188-2.313 3.129-1.149 3.982-1.622.855-.472.539-3.442-3.063-4.653zm-3.646 10.706a1.504 1.504 0 0 1-1.843-1.059 1.5 1.5 0 0 1 1.046-1.849 1.503 1.503 0 0 1 1.843 1.059 1.501 1.501 0 0 1-1.046 1.849z"></path></symbol><symbol id="icon-pause"></symbol><symbol id="icon-phone"></symbol><symbol viewBox="0 0 20 20" id="icon-photograph">
<path fill-rule="evenodd" clip-rule="evenodd" d="M4 3C3.46957 3 2.96086 3.21071 2.58579 3.58579C2.21071 3.96086 2 4.46957 2 5V15C2 15.5304 2.21071 16.0391 2.58579 16.4142C2.96086 16.7893 3.46957 17 4 17H16C16.5304 17 17.0391 16.7893 17.4142 16.4142C17.7893 16.0391 18 15.5304 18 15V5C18 4.46957 17.7893 3.96086 17.4142 3.58579C17.0391 3.21071 16.5304 3 16 3H4ZM16 15H4L8 7L11 13L13 9L16 15Z" fill="#9CA3AF"></path>
</symbol><symbol viewBox="0 0 20 20" id="icon-picture"><path d="M19 2H1a1 1 0 0 0-1 1v14a1 1 0 0 0 1 1h18a1 1 0 0 0 1-1V3a1 1 0 0 0-1-1zm-1 14H2V4h16v12zm-3.685-5.123l-3.231 1.605-3.77-6.101L4 14h12l-1.685-3.123zM13.25 9a1.25 1.25 0 1 0 0-2.5 1.25 1.25 0 0 0 0 2.5z"></path></symbol><symbol id="icon-pinterest"></symbol><symbol id="icon-play"></symbol><symbol id="icon-plus"></symbol><symbol id="icon-qrcode"></symbol><symbol id="icon-question"></symbol><symbol id="icon-quote-right"></symbol><symbol id="icon-random"></symbol><symbol id="icon-reddit"></symbol><symbol viewBox="0 0 24 24" id="icon-refresh">
<path fill-rule="evenodd" clip-rule="evenodd" d="M4.8001 2.40002C5.11836 2.40002 5.42358 2.52645 5.64863 2.7515C5.87367 2.97654 6.0001 3.28176 6.0001 3.60002V6.12122C6.99855 5.10275 8.23981 4.35519 9.60699 3.94896C10.9742 3.54274 12.4222 3.49121 13.8148 3.79923C15.2074 4.10725 16.4987 4.76469 17.567 5.70962C18.6353 6.65455 19.4455 7.85587 19.9213 9.20042C19.979 9.35013 20.0061 9.5099 20.001 9.67027C19.9959 9.83064 19.9587 9.98836 19.8916 10.1341C19.8245 10.2798 19.7288 10.4106 19.6103 10.5188C19.4917 10.6269 19.3527 10.7101 19.2014 10.7636C19.0501 10.817 18.8896 10.8396 18.7295 10.83C18.5693 10.8203 18.4127 10.7786 18.2689 10.7074C18.1252 10.6362 17.9971 10.5368 17.8924 10.4153C17.7877 10.2937 17.7084 10.1524 17.6593 9.99962C17.2971 8.9758 16.6638 8.06944 15.8271 7.37712C14.9904 6.68479 13.9815 6.23245 12.908 6.06828C11.8344 5.90412 10.7365 6.03429 9.73109 6.44491C8.7257 6.85554 7.85055 7.53125 7.1989 8.40002H10.8001C11.1184 8.40002 11.4236 8.52645 11.6486 8.7515C11.8737 8.97654 12.0001 9.28176 12.0001 9.60002C12.0001 9.91828 11.8737 10.2235 11.6486 10.4486C11.4236 10.6736 11.1184 10.8 10.8001 10.8H4.8001C4.48184 10.8 4.17661 10.6736 3.95157 10.4486C3.72653 10.2235 3.6001 9.91828 3.6001 9.60002V3.60002C3.6001 3.28176 3.72653 2.97654 3.95157 2.7515C4.17661 2.52645 4.48184 2.40002 4.8001 2.40002ZM4.8097 13.2684C4.9583 13.2159 5.11579 13.1932 5.27316 13.2016C5.43054 13.21 5.58473 13.2493 5.72691 13.3173C5.8691 13.3852 5.99651 13.4806 6.10186 13.5978C6.2072 13.715 6.28843 13.8518 6.3409 14.0004C6.70313 15.0242 7.33635 15.9306 8.17308 16.6229C9.00981 17.3153 10.0187 17.7676 11.0922 17.9318C12.1658 18.0959 13.2637 17.9658 14.2691 17.5551C15.2745 17.1445 16.1496 16.4688 16.8013 15.6H13.2001C12.8818 15.6 12.5766 15.4736 12.3516 15.2486C12.1265 15.0235 12.0001 14.7183 12.0001 14.4C12.0001 14.0818 12.1265 13.7765 12.3516 13.5515C12.5766 13.3265 12.8818 13.2 13.2001 13.2H19.2001C19.5184 13.2 19.8236 13.3265 20.0486 13.5515C20.2737 13.7765 20.4001 14.0818 20.4001 14.4V20.4C20.4001 20.7183 20.2737 21.0235 20.0486 21.2486C19.8236 21.4736 19.5184 21.6 19.2001 21.6C18.8818 21.6 18.5766 21.4736 18.3516 21.2486C18.1265 21.0235 18.0001 20.7183 18.0001 20.4V17.8788C17.0016 18.8973 15.7604 19.6449 14.3932 20.0511C13.026 20.4573 11.578 20.5088 10.1854 20.2008C8.79277 19.8928 7.5015 19.2354 6.43319 18.2904C5.36487 17.3455 4.55467 16.1442 4.0789 14.7996C4.02641 14.651 4.00371 14.4935 4.01209 14.3362C4.02047 14.1788 4.05977 14.0246 4.12774 13.8824C4.19572 13.7402 4.29104 13.6128 4.40825 13.5075C4.52547 13.4021 4.66229 13.3209 4.8109 13.2684H4.8097Z" fill="#9CA3AF"></path>
</symbol><symbol id="icon-right-dir"></symbol><symbol id="icon-right-open"></symbol><symbol id="icon-rocket"></symbol><symbol id="icon-search"></symbol><symbol id="icon-shield"></symbol><symbol id="icon-shuffle"></symbol><symbol id="icon-smile-o"></symbol><symbol id="icon-sort"></symbol><symbol id="icon-stackoverflow"></symbol><symbol viewBox="0 0 24 24" id="icon-stopwatch"><g><path d="M19.414 8.902c.104-.048.206-.108.293-.195l.5-.5c.391-.391.391-1.023 0-1.414s-1.023-.391-1.414 0l-.5.5-.115.173c-1.387-1.312-3.188-2.19-5.189-2.41l.011-.056v-1h1c.55 0 1-.45 1-1s-.45-1-1-1h-4c-.55 0-1 .45-1 1s.45 1 1 1h1v1l.012.057c-4.506.492-8.012 4.307-8.012 8.943 0 4.971 4.029 9 9 9s9-4.029 9-9c0-1.894-.588-3.648-1.586-5.098zm-7.414 12.098c-3.859 0-7-3.14-7-7s3.141-7 7-7 7 3.14 7 7-3.141 7-7 7zM13 13v-2c0-.55-.45-1-1-1s-1 .45-1 1v3c0 .55.45 1 1 1h3c.55 0 1-.45 1-1s-.45-1-1-1h-2zM12 8c-3.312 0-6 2.688-6 6s2.688 6 6 6 6-2.688 6-6-2.688-6-6-6zm0 11c-2.757 0-5-2.243-5-5s2.243-5 5-5 5 2.243 5 5-2.243 5-5 5z"></path></g></symbol><symbol id="icon-string"></symbol><symbol id="icon-sun-inv"></symbol><symbol id="icon-telegram"></symbol><symbol viewBox="0 0 20 20" id="icon-trash-2">
<path d="M8.33301 9.16667V14.1667M11.6663 9.16667V14.1667M3.33301 5.83333H16.6663M15.833 5.83333L15.1105 15.9517C15.0806 16.3722 14.8924 16.7657 14.5839 17.053C14.2755 17.3403 13.8696 17.5 13.448 17.5H6.55134C6.12979 17.5 5.7239 17.3403 5.41541 17.053C5.10693 16.7657 4.91877 16.3722 4.88884 15.9517L4.16634 5.83333H15.833ZM12.4997 5.83333V3.33333C12.4997 3.11232 12.4119 2.90036 12.2556 2.74408C12.0993 2.5878 11.8874 2.5 11.6663 2.5H8.33301C8.11199 2.5 7.90003 2.5878 7.74375 2.74408C7.58747 2.90036 7.49967 3.11232 7.49967 3.33333V5.83333H12.4997Z" stroke="#9F9F9F" stroke-width="2" stroke-linecap="round" stroke-linejoin="round"></path>
</symbol><symbol viewBox="0 0 20 20" id="icon-trash">
<path fill-rule="evenodd" clip-rule="evenodd" d="M9 2C8.81434 2.0001 8.63237 2.05188 8.47447 2.14955C8.31658 2.24722 8.18899 2.38692 8.106 2.553L7.382 4H4C3.73478 4 3.48043 4.10536 3.29289 4.29289C3.10536 4.48043 3 4.73478 3 5C3 5.26522 3.10536 5.51957 3.29289 5.70711C3.48043 5.89464 3.73478 6 4 6V16C4 16.5304 4.21071 17.0391 4.58579 17.4142C4.96086 17.7893 5.46957 18 6 18H14C14.5304 18 15.0391 17.7893 15.4142 17.4142C15.7893 17.0391 16 16.5304 16 16V6C16.2652 6 16.5196 5.89464 16.7071 5.70711C16.8946 5.51957 17 5.26522 17 5C17 4.73478 16.8946 4.48043 16.7071 4.29289C16.5196 4.10536 16.2652 4 16 4H12.618L11.894 2.553C11.811 2.38692 11.6834 2.24722 11.5255 2.14955C11.3676 2.05188 11.1857 2.0001 11 2H9ZM7 8C7 7.73478 7.10536 7.48043 7.29289 7.29289C7.48043 7.10536 7.73478 7 8 7C8.26522 7 8.51957 7.10536 8.70711 7.29289C8.89464 7.48043 9 7.73478 9 8V14C9 14.2652 8.89464 14.5196 8.70711 14.7071C8.51957 14.8946 8.26522 15 8 15C7.73478 15 7.48043 14.8946 7.29289 14.7071C7.10536 14.5196 7 14.2652 7 14V8ZM12 7C11.7348 7 11.4804 7.10536 11.2929 7.29289C11.1054 7.48043 11 7.73478 11 8V14C11 14.2652 11.1054 14.5196 11.2929 14.7071C11.4804 14.8946 11.7348 15 12 15C12.2652 15 12.5196 14.8946 12.7071 14.7071C12.8946 14.5196 13 14.2652 13 14V8C13 7.73478 12.8946 7.48043 12.7071 7.29289C12.5196 7.10536 12.2652 7 12 7Z" fill="#9CA3AF"></path>
</symbol><symbol id="icon-twitter"></symbol><symbol id="icon-underline"></symbol><symbol id="icon-up-dir"></symbol><symbol id="icon-up-open"></symbol><symbol id="icon-upload"></symbol><symbol viewBox="0 0 20 20" id="icon-user">
<path fill-rule="evenodd" clip-rule="evenodd" d="M10 9C10.7956 9 11.5587 8.68393 12.1213 8.12132C12.6839 7.55871 13 6.79565 13 6C13 5.20435 12.6839 4.44129 12.1213 3.87868C11.5587 3.31607 10.7956 3 10 3C9.20435 3 8.44129 3.31607 7.87868 3.87868C7.31607 4.44129 7 5.20435 7 6C7 6.79565 7.31607 7.55871 7.87868 8.12132C8.44129 8.68393 9.20435 9 10 9ZM3 18C3 17.0807 3.18106 16.1705 3.53284 15.3212C3.88463 14.4719 4.40024 13.7003 5.05025 13.0503C5.70026 12.4002 6.47194 11.8846 7.32122 11.5328C8.1705 11.1811 9.08075 11 10 11C10.9193 11 11.8295 11.1811 12.6788 11.5328C13.5281 11.8846 14.2997 12.4002 14.9497 13.0503C15.5998 13.7003 16.1154 14.4719 16.4672 15.3212C16.8189 16.1705 17 17.0807 17 18H3Z" fill="#9CA3AF"></path>
</symbol><symbol id="icon-users"></symbol><symbol id="icon-videocam"></symbol><symbol viewBox="0 0 24 24" id="icon-warning"><path d="M21.171 15.398l-5.912-9.854c-.776-1.293-1.963-2.033-3.259-2.033s-2.483.74-3.259 2.031l-5.912 9.856c-.786 1.309-.872 2.705-.235 3.83.636 1.126 1.878 1.772 3.406 1.772h12c1.528 0 2.77-.646 3.406-1.771.637-1.125.551-2.521-.235-3.831zm-9.171 2.151c-.854 0-1.55-.695-1.55-1.549 0-.855.695-1.551 1.55-1.551s1.55.696 1.55 1.551c0 .854-.696 1.549-1.55 1.549zm1.633-7.424c-.011.031-1.401 3.468-1.401 3.468-.038.094-.13.156-.231.156s-.193-.062-.231-.156l-1.391-3.438c-.09-.233-.129-.443-.129-.655 0-.965.785-1.75 1.75-1.75s1.75.785 1.75 1.75c0 .212-.039.422-.117.625z"></path></symbol><symbol id="icon-whatsapp"></symbol><symbol id="icon-wheelchair"></symbol><symbol id="icon-windows"></symbol><symbol id="icon-wrench"></symbol><symbol id="icon-x"></symbol><symbol id="icon-youtube-play"></symbol></svg>