<svg width="30" height="30" viewBox="0 0 30 30" fill="none" xmlns="http://www.w3.org/2000/svg">
<mask id="path-1-outside-1_6367_338394" maskUnits="userSpaceOnUse" x="0" y="0" width="30" height="30" fill="black">
<rect fill="white" width="30" height="30"/>
<path d="M1 10.6C1 7.23969 1 5.55953 1.65396 4.27606C2.2292 3.14708 3.14708 2.2292 4.27606 1.65396C5.55953 1 7.23969 1 10.6 1H19.4C22.7603 1 24.4405 1 25.7239 1.65396C26.8529 2.2292 27.7708 3.14708 28.346 4.27606C29 5.55953 29 7.23969 29 10.6V19.4C29 22.7603 29 24.4405 28.346 25.7239C27.7708 26.8529 26.8529 27.7708 25.7239 28.346C24.4405 29 22.7603 29 19.4 29H10.6C7.23969 29 5.55953 29 4.27606 28.346C3.14708 27.7708 2.2292 26.8529 1.65396 25.7239C1 24.4405 1 22.7603 1 19.4V10.6Z"/>
</mask>
<path d="M1 10.6C1 7.23969 1 5.55953 1.65396 4.27606C2.2292 3.14708 3.14708 2.2292 4.27606 1.65396C5.55953 1 7.23969 1 10.6 1H19.4C22.7603 1 24.4405 1 25.7239 1.65396C26.8529 2.2292 27.7708 3.14708 28.346 4.27606C29 5.55953 29 7.23969 29 10.6V19.4C29 22.7603 29 24.4405 28.346 25.7239C27.7708 26.8529 26.8529 27.7708 25.7239 28.346C24.4405 29 22.7603 29 19.4 29H10.6C7.23969 29 5.55953 29 4.27606 28.346C3.14708 27.7708 2.2292 26.8529 1.65396 25.7239C1 24.4405 1 22.7603 1 19.4V10.6Z" fill="white"/>
<path d="M4.27606 28.346L4.73005 27.455L4.27606 28.346ZM1.65396 25.7239L0.762954 26.1779L1.65396 25.7239ZM28.346 25.7239L29.237 26.1779L28.346 25.7239ZM25.7239 28.346L26.1779 29.237L25.7239 28.346ZM28.346 4.27606L27.455 4.73005L28.346 4.27606ZM10.6 2H19.4V0H10.6V2ZM28 10.6V19.4H30V10.6H28ZM19.4 28H10.6V30H19.4V28ZM2 19.4V10.6H0V19.4H2ZM10.6 28C8.90334 28 7.69099 27.9992 6.74064 27.9216C5.80197 27.8449 5.20731 27.6982 4.73005 27.455L3.82207 29.237C4.62827 29.6478 5.51543 29.8281 6.57778 29.9149C7.62846 30.0008 8.93634 30 10.6 30V28ZM0 19.4C0 21.0637 -0.000777706 22.3715 0.0850662 23.4222C0.171864 24.4846 0.352173 25.3717 0.762954 26.1779L2.54497 25.27C2.30179 24.7927 2.15512 24.198 2.07842 23.2594C2.00078 22.309 2 21.0967 2 19.4H0ZM4.73005 27.455C3.78924 26.9757 3.02433 26.2108 2.54497 25.27L0.762954 26.1779C1.43407 27.4951 2.50493 28.5659 3.82207 29.237L4.73005 27.455ZM28 19.4C28 21.0967 27.9992 22.309 27.9216 23.2594C27.8449 24.198 27.6982 24.7927 27.455 25.27L29.237 26.1779C29.6478 25.3717 29.8281 24.4846 29.9149 23.4222C30.0008 22.3715 30 21.0637 30 19.4H28ZM19.4 30C21.0637 30 22.3715 30.0008 23.4222 29.9149C24.4846 29.8281 25.3717 29.6478 26.1779 29.237L25.27 27.455C24.7927 27.6982 24.198 27.8449 23.2594 27.9216C22.309 27.9992 21.0967 28 19.4 28V30ZM27.455 25.27C26.9757 26.2108 26.2108 26.9757 25.27 27.455L26.1779 29.237C27.4951 28.5659 28.5659 27.4951 29.237 26.1779L27.455 25.27ZM19.4 2C21.0967 2 22.309 2.00078 23.2594 2.07842C24.198 2.15512 24.7927 2.30179 25.27 2.54497L26.1779 0.762954C25.3717 0.352173 24.4846 0.171864 23.4222 0.0850662C22.3715 -0.000777706 21.0637 0 19.4 0V2ZM30 10.6C30 8.93634 30.0008 7.62846 29.9149 6.57778C29.8281 5.51543 29.6478 4.62827 29.237 3.82207L27.455 4.73005C27.6982 5.20731 27.8449 5.80197 27.9216 6.74064C27.9992 7.69099 28 8.90334 28 10.6H30ZM25.27 2.54497C26.2108 3.02433 26.9757 3.78924 27.455 4.73005L29.237 3.82207C28.5659 2.50493 27.4951 1.43407 26.1779 0.762954L25.27 2.54497ZM10.6 0C8.93634 0 7.62846 -0.000777706 6.57778 0.0850662C5.51543 0.171864 4.62827 0.352173 3.82207 0.762954L4.73005 2.54497C5.20731 2.30179 5.80197 2.15512 6.74064 2.07842C7.69099 2.00078 8.90334 2 10.6 2V0ZM2 10.6C2 8.90334 2.00078 7.69099 2.07842 6.74064C2.15512 5.80197 2.30179 5.20731 2.54497 4.73005L0.762954 3.82207C0.352173 4.62827 0.171864 5.51543 0.0850662 6.57778C-0.000777706 7.62846 0 8.93634 0 10.6H2ZM3.82207 0.762954C2.50493 1.43407 1.43407 2.50493 0.762954 3.82207L2.54497 4.73005C3.02433 3.78924 3.78924 3.02433 4.73005 2.54497L3.82207 0.762954Z" fill="#D8D8DB" mask="url(#path-1-outside-1_6367_338394)"/>
<path fill-rule="evenodd" clip-rule="evenodd" d="M8 9C8 8.44772 8.44772 8 9 8H12C12.5523 8 13 8.44772 13 9V12C13 12.5523 12.5523 13 12 13H9C8.44772 13 8 12.5523 8 12V9ZM10 11V10H11V11H10Z" fill="#97979B"/>
<path fill-rule="evenodd" clip-rule="evenodd" d="M8 18C8 17.4477 8.44772 17 9 17H12C12.5523 17 13 17.4477 13 18V21C13 21.5523 12.5523 22 12 22H9C8.44772 22 8 21.5523 8 21V18ZM10 20V19H11V20H10Z" fill="#97979B"/>
<path fill-rule="evenodd" clip-rule="evenodd" d="M18 8C17.4477 8 17 8.44772 17 9V12C17 12.5523 17.4477 13 18 13H21C21.5523 13 22 12.5523 22 12V9C22 8.44772 21.5523 8 21 8H18ZM19 10V11H20V10H19Z" fill="#97979B"/>
<path d="M16 9C16 8.44772 15.5523 8 15 8C14.4477 8 14 8.44772 14 9V10C14 10.5523 14.4477 11 15 11C15.5523 11 16 10.5523 16 10V9Z" fill="#97979B"/>
<path d="M15 12C15.5523 12 16 12.4477 16 13V14H18C18.5523 14 19 14.4477 19 15C19 15.5523 18.5523 16 18 16H15C14.4477 16 14 15.5523 14 15V13C14 12.4477 14.4477 12 15 12Z" fill="#97979B"/>
<path d="M21 14C20.4477 14 20 14.4477 20 15C20 15.5523 20.4477 16 21 16C21.5523 16 22 15.5523 22 15C22 14.4477 21.5523 14 21 14Z" fill="#97979B"/>
<path d="M14 18C14 17.4477 14.4477 17 15 17H16C16.5523 17 17 17.4477 17 18C17 18.5523 16.5523 19 16 19V21C16 21.5523 15.5523 22 15 22C14.4477 22 14 21.5523 14 21V18Z" fill="#97979B"/>
<path d="M12 16C12.5523 16 13 15.5523 13 15C13 14.4477 12.5523 14 12 14H9C8.44772 14 8 14.4477 8 15C8 15.5523 8.44772 16 9 16H12Z" fill="#97979B"/>
<path d="M22 18C22 18.5523 21.5523 19 21 19H19C18.4477 19 18 18.5523 18 18C18 17.4477 18.4477 17 19 17H21C21.5523 17 22 17.4477 22 18Z" fill="#97979B"/>
<path d="M21 22C21.5523 22 22 21.5523 22 21C22 20.4477 21.5523 20 21 20H18C17.4477 20 17 20.4477 17 21C17 21.5523 17.4477 22 18 22H21Z" fill="#97979B"/>
</svg>
