<svg width="24" height="24" viewBox="0 0 801 755" fill="none" xmlns="http://www.w3.org/2000/svg">
<path d="M266.71.4h236.71L257.69 728.9a37.8 37.8 0 0 1-5.42 10.38c-2.33 3.16-5.14 5.93-8.33 8.22s-6.71 4.07-10.45 5.27-7.64 1.82-11.56 1.82H37.71c-5.98 0-11.88-1.42-17.2-4.16A37.636 37.636 0 0 1 7.1 738.87a37.762 37.762 0 0 1-6.66-16.41c-.89-5.92-.35-11.97 1.56-17.64L230.94 26.07c1.25-3.72 3.08-7.22 5.42-10.38 2.33-3.16 5.15-5.93 8.33-8.22 3.19-2.29 6.71-4.07 10.45-5.27S262.78.38 266.7.38v.01z" fill="#C4C6D7"/>
<path d="M703.07 754.59H490.52c-2.37 0-4.74-.22-7.08-.67-2.33-.44-4.62-1.1-6.83-1.97s-4.33-1.95-6.34-3.21a38.188 38.188 0 0 1-5.63-4.34l-241.2-225.26a17.423 17.423 0 0 1-5.1-8.88 17.383 17.383 0 0 1 7.17-18.21c2.89-1.96 6.3-3.01 9.79-3.01h375.36l92.39 265.56z" fill="#C4C6D7"/>
<path d="M797.99 704.82a37.847 37.847 0 0 1 1.57 17.64 37.867 37.867 0 0 1-6.65 16.41 37.691 37.691 0 0 1-30.61 15.72H498.48c5.98 0 11.88-1.43 17.21-4.16 5.32-2.73 9.92-6.7 13.41-11.56s5.77-10.49 6.66-16.41.35-11.97-1.56-17.64L305.25 26.05a37.713 37.713 0 0 0-13.73-18.58c-3.18-2.29-6.7-4.06-10.43-5.26S273.46.4 269.55.4h263.81c3.92 0 7.81.61 11.55 1.81 3.73 1.2 7.25 2.98 10.44 5.26 3.18 2.29 5.99 5.06 8.32 8.21s4.15 6.65 5.41 10.37l228.95 678.77z" fill="#C4C6D7"/>
</svg>
