<svg width="20" height="20" viewBox="0 0 20 20" fill="none" xmlns="http://www.w3.org/2000/svg">
<path d="M4.62112 12.97L8.10468 10.9839L8.16326 10.8114L8.10468 10.7155H7.93493L7.35274 10.679L5.3623 10.6244L3.63606 10.5515L1.96362 10.4604L1.54282 10.3693L1.14832 9.84087L1.18896 9.57727L1.54282 9.33554L2.04969 9.38048L3.16983 9.45823L4.85065 9.57606L6.07001 9.64894L7.87635 9.83965H8.16326L8.2039 9.72183L8.10588 9.64894L8.02937 9.57606L6.28998 8.37832L4.40713 7.11257L3.42088 6.38372L2.88771 6.01444L2.61873 5.66824L2.50277 4.91267L2.98693 4.3709L3.63726 4.41585L3.80343 4.46079L4.46212 4.97584L5.86918 6.08247L7.70659 7.45755L7.97557 7.68471L8.08316 7.60696L8.09631 7.5523L7.97557 7.34701L6.97617 5.51154L5.90982 3.64449L5.43523 2.8707L5.3097 2.40667C5.26547 2.21595 5.23319 2.05561 5.23319 1.86004L5.7843 1.09961L6.08914 1L6.82435 1.09961L7.13397 1.37293L7.59063 2.43461L8.33062 4.10609L9.47826 6.37886L9.81419 7.05304L9.9935 7.67742L10.0605 7.86813H10.1764V7.75881L10.2709 6.47847L10.4454 4.9066L10.6151 2.88406L10.6737 2.31435L10.9511 1.63166L11.5022 1.26238L11.9325 1.47132L12.2864 1.98637L12.2374 2.31921L12.027 3.70887L11.6145 5.88568L11.3456 7.34337H11.5022L11.6815 7.16116L12.4071 6.18208L13.6265 4.63328L14.1645 4.01863L14.7921 3.33959L15.1949 3.01647H15.9564L16.5171 3.86314L16.2661 4.73775L15.4818 5.74841L14.8315 6.6048L13.8991 7.88028L13.3169 8.90066L13.3707 8.98205L13.5093 8.96869L15.6157 8.51316L16.7538 8.30422L18.1119 8.06735L18.7263 8.35889L18.7933 8.65528L18.5518 9.26144L17.0993 9.62586L15.3958 9.97206L12.859 10.5819L12.8279 10.6049L12.8638 10.6499L14.0067 10.7592L14.4956 10.7859H15.6923L17.9206 10.9548L18.5028 11.3459L18.8518 11.8245L18.7933 12.189L17.8967 12.653L16.6869 12.3615L13.8632 11.6788L12.8949 11.4334H12.761V11.5148L13.5679 12.3165L15.0467 13.6734L16.8985 15.4226L16.9929 15.855L16.755 16.1964L16.504 16.1599L14.8769 14.916L14.2493 14.3561L12.8279 13.1401H12.7335V13.2676L13.061 13.7548L14.7909 16.3968L14.8805 17.207L14.755 17.4706L14.3067 17.6298L13.8142 17.5387L12.8016 16.0943L11.7568 14.4678L10.914 13.0101L10.8112 13.0696L10.3139 18.5129L10.0808 18.7911L9.54282 19L9.09452 18.6538L8.85663 18.0938L9.09452 16.9872L9.38143 15.5429L9.61454 14.3949L9.82495 12.9688L9.95047 12.4951L9.9421 12.4635L9.83929 12.4769L8.78131 13.9528L7.17222 16.1624L5.89906 17.5472L5.59422 17.6699L5.06583 17.3917L5.11484 16.8949L5.41012 16.4527L7.17222 14.1751L8.23499 12.7635L8.92118 11.9484L8.9164 11.8306H8.87575L4.19554 14.9185L3.3623 15.0278L3.00367 14.6865L3.0479 14.1265L3.21765 13.9443L4.62471 12.9603L4.61992 12.9652L4.62112 12.97Z" fill="#C4C6D7"/>
</svg>
