<svg width="131" height="25" viewBox="0 0 131 25" fill="none" xmlns="http://www.w3.org/2000/svg" aria-hidden="true">
    <path d="M38.2643 19.5087C40.4069 19.5087 41.49 18.3947 41.9609 17.6362H42.1728C42.267 18.4421 42.832 19.2006 43.9386 19.2006H46.0341V16.8304H45.4926C45.1159 16.8304 44.9275 16.617 44.9275 16.2852V6.78055H42.1492V8.29751H41.9373C41.3958 7.53903 40.2656 6.47242 38.1937 6.47242C34.8974 6.47242 32.4487 9.2219 32.4487 12.9906C32.4487 16.7593 34.9445 19.5087 38.2643 19.5087ZM38.7588 16.8067C36.8045 16.8067 35.2741 15.3608 35.2741 13.0143C35.2741 10.7151 36.7574 9.15079 38.7352 9.15079C40.6188 9.15079 42.1963 10.5492 42.1963 13.0143C42.1963 15.1238 40.8543 16.8067 38.7588 16.8067Z" fill="#19191D"/>
    <path d="M47.6745 24.0166H50.4528V17.6362H50.6647C51.1826 18.3947 52.2893 19.5087 54.4789 19.5087C57.7752 19.5087 60.1768 16.7118 60.1768 12.9906C60.1768 9.2456 57.6104 6.47242 54.2906 6.47242C52.1715 6.47242 51.1356 7.63384 50.6411 8.2738H50.4292V6.78055H47.6745V24.0166ZM53.8903 16.8778C51.9832 16.8778 50.4057 15.4556 50.4057 12.9906C50.4057 10.8811 51.7477 9.10339 53.8432 9.10339C55.7974 9.10339 57.3279 10.644 57.3279 12.9906C57.3279 15.2897 55.8445 16.8778 53.8903 16.8778Z" fill="#19191D"/>
    <path d="M61.6104 24.0166H64.3887V17.6362H64.6006C65.1186 18.3947 66.2252 19.5087 68.4149 19.5087C71.7112 19.5087 73.8839 16.7118 73.8839 12.9906C73.8839 9.2456 71.5464 6.47242 68.2265 6.47242C66.1075 6.47242 65.0715 7.63384 64.5771 8.2738H64.3652V6.78055H61.6104V24.0166ZM67.8263 16.8778C65.9191 16.8778 64.3416 15.4556 64.3416 12.9906C64.3416 10.8811 65.6837 9.10339 67.7792 9.10339C69.7334 9.10339 71.2638 10.644 71.2638 12.9906C71.2638 15.2897 69.7805 16.8778 67.8263 16.8778Z" fill="#19191D"/>
    <path d="M77.5565 19.489H81.4885L83.7252 9.74733H83.8665L86.1033 19.489H90.0117L93.1415 7.06896H90.3414L88.1046 16.8343H87.8927L85.6559 7.06896H81.9594L79.6991 16.8343H79.4872L77.2739 7.06896H74.3073L77.5565 19.489Z" fill="#19191D"/>
    <path d="M94.549 19.489H97.3273V13.3501C97.3273 11.0036 98.4104 9.55771 100.435 9.55771H101.66V6.76083H100.741C99.1638 6.76083 97.963 7.85114 97.4921 8.89405H97.3038V7.06896H94.549V19.489Z" fill="#19191D"/>
    <path d="M115.447 19.489H117.613V17.0003H115.47C114.623 17.0003 114.27 16.621 114.27 15.744V9.53401H117.754V7.06896H114.27V3.58472H111.633V7.06896H109.325V9.53401H111.468V15.7677C111.468 18.3987 113.045 19.489 115.447 19.489Z" fill="#19191D"/>
    <path d="M125.067 19.5087C127.633 19.5087 129.893 18.2288 130.694 15.6452L128.151 15.029C127.704 16.4037 126.409 17.1148 125.043 17.1148C123.018 17.1148 121.676 15.7875 121.653 13.7016H131V12.9195C131 9.2219 128.716 6.47242 124.949 6.47242C121.629 6.47242 118.78 9.10339 118.78 13.0143C118.78 16.8067 121.3 19.5087 125.067 19.5087ZM121.676 11.6632C121.841 10.17 123.183 8.91377 124.949 8.91377C126.644 8.91377 128.033 9.98037 128.175 11.6632H121.676Z" fill="#19191D"/>
    <path fill-rule="evenodd" clip-rule="evenodd" d="M108.09 19.489H105.312V9.53401H103.145V7.06896H108.09V19.489Z" fill="#19191D"/>
    <path d="M106.494 5.34533C107.507 5.34533 108.26 4.58686 108.26 3.59136C108.26 2.61956 107.507 1.86108 106.494 1.86108C105.482 1.86108 104.729 2.61956 104.729 3.59136C104.729 4.58686 105.482 5.34533 106.494 5.34533Z" fill="#19191D"/>
    <path d="M24.2577 16.4436V21.9248H10.6705C6.71194 21.9248 3.25559 19.7204 1.40636 16.4436C1.13754 15.9672 0.90225 15.4674 0.704883 14.9487C0.31744 13.9322 0.0738912 12.8415 0 11.7034V10.2214C0.0160422 9.96781 0.0413207 9.71617 0.0743773 9.46752C0.141949 8.95727 0.244035 8.45799 0.378206 7.97265C1.64748 3.37143 5.77469 0 10.6705 0C15.5662 0 19.693 3.37143 20.9622 7.97265H15.1526C14.1988 6.47279 12.5479 5.4812 10.6705 5.4812C8.79305 5.4812 7.14216 6.47279 6.18839 7.97265C5.89768 8.42859 5.67212 8.93136 5.52434 9.46752C5.39308 9.94289 5.32308 10.4442 5.32308 10.9624C5.32308 12.5335 5.96768 13.9497 7.00119 14.9487C7.95886 15.876 9.25 16.4436 10.6705 16.4436H24.2577Z" fill="#FD366E"/>
    <path d="M24.2578 9.46753V14.9487H14.3398C15.3733 13.9497 16.018 12.5335 16.018 10.9624C16.018 10.4442 15.9479 9.9429 15.8167 9.46753H24.2578Z" fill="#FD366E"/>
</svg>
