<svg width="25" height="22" viewBox="0 0 25 22" fill="none" xmlns="http://www.w3.org/2000/svg" aria-hidden="true">
    <path d="M24.2577 16.4436V21.9248H10.6705C6.71194 21.9248 3.25559 19.7204 1.40636 16.4436C1.13754 15.9672 0.90225 15.4674 0.704883 14.9487C0.31744 13.9322 0.0738912 12.8415 0 11.7034V10.2214C0.0160422 9.96781 0.0413207 9.71617 0.0743773 9.46752C0.141949 8.95727 0.244035 8.45799 0.378206 7.97265C1.64748 3.37143 5.77469 0 10.6705 0C15.5662 0 19.693 3.37143 20.9622 7.97265H15.1526C14.1988 6.47279 12.5479 5.4812 10.6705 5.4812C8.79305 5.4812 7.14216 6.47279 6.18839 7.97265C5.89768 8.42859 5.67212 8.93136 5.52434 9.46752C5.39308 9.94289 5.32308 10.4442 5.32308 10.9624C5.32308 12.5335 5.96768 13.9497 7.00119 14.9487C7.95886 15.876 9.25 16.4436 10.6705 16.4436H24.2577Z" fill="#FD366E"/>
    <path d="M24.2578 9.46753V14.9487H14.3398C15.3733 13.9497 16.018 12.5335 16.018 10.9624C16.018 10.4442 15.9479 9.9429 15.8167 9.46753H24.2578Z" fill="#FD366E"/>
</svg>
