<svg xmlns="http://www.w3.org/2000/svg" fill="none" viewBox="0 0 20 20">
    <path fill="currentColor" fill-rule="evenodd" d="M3.707 2.293a1 1 0 1 0-1.414 1.414l14 14a1 1 0 1 0 1.414-1.414l-1.473-1.473A10 10 0 0 0 19.543 10C18.268 5.943 14.478 3 10 3a9.96 9.96 0 0 0-4.512 1.074zm4.261 4.26 1.514 1.515a2.003 2.003 0 0 1 2.45 2.45l1.515 1.514a4 4 0 0 0-5.478-5.478" clip-rule="evenodd"/>
    <path fill="currentColor" d="M12.454 16.697 9.75 13.992a4 4 0 0 1-3.742-3.742L2.335 6.578A10 10 0 0 0 .458 10c1.274 4.057 5.065 7 9.542 7 .847 0 1.67-.105 2.454-.303"/>
</svg>
