<svg width="16" height="16" viewBox="0 0 16 16" fill="none" xmlns="http://www.w3.org/2000/svg" aria-hidden="true">
    <path class="spinner-ring" opacity="0.2" d="M14.4001 7.99998C14.4001 11.5346 11.5347 14.4 8.0001 14.4C4.46548 14.4 1.6001 11.5346 1.6001 7.99998C1.6001 4.46535 4.46548 1.59998 8.0001 1.59998C11.5347 1.59998 14.4001 4.46535 14.4001 7.99998ZM2.8801 7.99998C2.8801 10.8277 5.1724 13.12 8.0001 13.12C10.8278 13.12 13.1201 10.8277 13.1201 7.99998C13.1201 5.17228 10.8278 2.87998 8.0001 2.87998C5.1724 2.87998 2.8801 5.17228 2.8801 7.99998Z" fill="var(--fgcolor-neutral-secondary)"/>
    <path class="spinner-arc" d="M4.32921 2.7574C5.15654 2.1781 6.10923 1.80282 7.10939 1.66226C8.10955 1.5217 9.12877 1.61984 10.0837 1.94866C11.0387 2.27748 11.9023 2.82764 12.6039 3.55416C13.3055 4.28069 13.8252 5.16294 14.1204 6.1288C14.4157 7.09465 14.4782 8.11668 14.3029 9.11133C14.1275 10.106 13.7192 11.045 13.1114 11.8516C12.5035 12.6582 11.7134 13.3095 10.8057 13.7523C9.8979 14.195 8.89823 14.4166 7.8884 14.399L7.91074 13.1192C8.71861 13.1333 9.51834 12.956 10.2446 12.6018C10.9708 12.2476 11.6029 11.7266 12.0891 11.0813C12.5754 10.436 12.902 9.68477 13.0423 8.88906C13.1826 8.09334 13.1326 7.27572 12.8964 6.50303C12.6601 5.73035 12.2444 5.02454 11.6831 4.44333C11.1218 3.86211 10.431 3.42198 9.66701 3.15892C8.90304 2.89586 8.08766 2.81735 7.28753 2.9298C6.48741 3.04225 5.72525 3.34247 5.06339 3.80592L4.32921 2.7574Z" fill="var(--fgcolor-neutral-secondary)"/>
</svg>
