<svg width="34" height="34" viewBox="0 0 34 34" fill="none" xmlns="http://www.w3.org/2000/svg">
    <rect x="0.5" y="0.5" width="33" height="33" rx="8.5" fill="white" stroke="#EDEDF0"/>
    <path fill-rule="evenodd" clip-rule="evenodd" d="M28.3208 9.43304C27.9548 9.4451 28.0607 9.61 27.2684 9.80574C26.468 10.0028 25.5 9.88216 24.6393 10.2441C22.387 11.188 22.0224 14.8372 19.3397 16.249C17.5807 17.2424 15.7869 17.4703 14.1835 17.973C12.8965 18.4892 12.0961 18.8311 11.1523 19.6448C10.4203 20.2763 10.242 20.889 9.47647 21.6813C8.70022 22.7364 5.75747 21.7993 5 23.1225C5.39952 23.3813 5.6301 23.4523 6.33127 23.3598C6.18647 23.6346 5.26411 23.9966 5.43169 24.4015C5.43169 24.4015 7.66121 24.8077 9.54081 23.6735C10.4176 23.3169 11.2394 22.5621 12.6015 22.3811C14.3658 22.1465 16.354 22.7512 18.487 22.9214C18.046 23.7928 17.5915 24.3077 17.1048 25.0263C16.9547 25.1885 17.2335 25.3319 17.751 25.2341C18.6814 25.0035 19.3558 24.7541 20.0248 24.2916C20.8975 23.6896 21.2729 23.1386 22.009 22.2658C22.6484 23.2914 24.9034 23.5167 25.366 22.6305C24.5053 22.2658 24.3216 20.3688 24.6165 19.5497C24.9651 18.7694 25.2158 17.666 25.4974 16.6404C25.7507 15.7167 25.9076 14.3077 26.2106 13.5864C26.5726 12.6895 27.2764 12.4093 27.8046 11.9334C28.3328 11.4574 28.8584 11.0606 28.8423 9.97198C28.8369 9.61805 28.6546 9.42231 28.3208 9.43304Z" fill="#1F305F"/>
    <path d="M5.673 24.2137C7.05522 24.2553 7.43061 24.2191 8.52324 23.7445C9.45232 23.341 10.6951 22.2537 11.7931 21.9024C13.4046 21.3849 15.1327 21.4627 16.8474 21.6651C17.4212 21.7335 17.9977 21.8287 18.4093 21.7844C19.0514 21.3903 19.0823 20.3204 19.4805 20.2346C19.3719 22.3046 18.4843 23.6292 17.5968 24.8304C19.467 24.5006 20.7165 23.3329 21.4727 21.8877C21.7019 21.4493 22.0827 20.732 22.257 20.2387C22.395 20.5658 22.0773 20.7736 22.2261 21.1302C23.43 20.1368 23.9985 19.0053 24.4865 17.3482C25.0522 15.4311 25.6327 13.7834 25.9974 13.2163C26.3527 12.6626 26.9064 12.3207 27.4118 11.9668C27.9856 11.5633 28.4991 11.1436 28.5875 10.3754C27.9816 10.3191 27.8421 10.1797 27.7523 9.87402C27.4493 10.0443 27.1705 10.0818 26.8554 10.0912C26.5819 10.0993 26.2816 10.0872 25.9143 10.1247C22.8804 10.4358 22.7396 13.4013 20.5342 15.5785C20.3921 15.7166 20.1494 15.9204 19.9886 16.0411C19.3075 16.5492 18.5782 16.828 17.81 17.1216C16.5658 17.5962 15.3861 17.7343 14.2197 18.1446C13.363 18.4449 12.5667 18.7894 11.8628 19.2707C11.6872 19.3914 11.4486 19.6059 11.2957 19.7306C10.8828 20.0684 10.612 20.4424 10.3492 20.8286C10.0784 21.2254 9.81831 21.6343 9.42014 22.0244C8.77528 22.6572 6.36746 22.2094 5.51882 22.7966C5.42497 22.8623 5.34855 22.9401 5.29761 23.0339C5.76014 23.2444 6.06982 23.1157 6.60207 23.1734C6.66776 23.6815 5.50005 23.9818 5.673 24.2137Z" fill="#C0765A"/>
    <path fill-rule="evenodd" clip-rule="evenodd" d="M24.9033 11.3797C25.3323 11.7524 26.2333 11.4534 26.0724 10.712C25.4047 10.6557 25.0186 10.8823 24.9033 11.3797Z" fill="#1F305F"/>
    <path d="M27.8971 10.5123C27.7831 10.7523 27.5646 11.0606 27.5646 11.6706C27.5632 11.7752 27.4855 11.8476 27.4841 11.6854C27.4895 11.0888 27.6477 10.8314 27.8153 10.4935C27.8917 10.3554 27.9386 10.4117 27.8971 10.5123Z" fill="#1F305F"/>
    <path d="M27.7818 10.4225C27.6464 10.6504 27.322 11.0674 27.2697 11.676C27.2603 11.7806 27.1745 11.845 27.1879 11.6841C27.2469 11.0915 27.5057 10.7202 27.7028 10.3971C27.7912 10.2657 27.8328 10.326 27.7818 10.4225Z" fill="#1F305F"/>
    <path d="M27.6772 10.303C27.523 10.5189 27.0243 11.0203 26.9197 11.6209C26.901 11.7241 26.8112 11.7804 26.838 11.6222C26.9466 11.0364 27.3769 10.5752 27.5995 10.2708C27.6987 10.1462 27.7362 10.2105 27.6772 10.303Z" fill="#1F305F"/>
    <path d="M27.5835 10.1688C27.4012 10.3619 26.8059 11 26.6182 11.5805C26.5847 11.6797 26.4882 11.724 26.5365 11.5698C26.7255 11.0041 27.247 10.3954 27.5111 10.1259C27.6278 10.0173 27.6546 10.087 27.5835 10.1688Z" fill="#1F305F"/>
</svg>
