<svg width="32" height="32" viewBox="0 0 32 32" fill="none" xmlns="http://www.w3.org/2000/svg">
    <rect width="32" height="32" rx="8" fill="#081E2B"/>
    <g transform="translate(11.4, 6.1)">
        <path d="M6.03701 2.19958C5.24603 1.21687 4.56489 0.218806 4.42574 0.0115161C4.41109 -0.00383871 4.38911 -0.00383871 4.37447 0.0115161C4.23531 0.218806 3.55418 1.21687 2.76319 2.19958C-4.02614 11.2666 3.8325 17.3856 3.8325 17.3856L3.89841 17.4316C3.95699 18.3759 4.10348 19.7348 4.10348 19.7348H4.39644H4.6894C4.6894 19.7348 4.83588 18.3836 4.89447 17.4316L4.96038 17.3779C4.9677 17.3779 12.8264 11.2666 6.03701 2.19958ZM4.39644 17.2473C4.39644 17.2473 4.04489 16.9325 3.94968 16.7713V16.756L4.37447 6.88281C4.37447 6.8521 4.41842 6.8521 4.41842 6.88281L4.8432 16.756V16.7713C4.74799 16.9325 4.39644 17.2473 4.39644 17.2473Z" fill="#00ED64"/>
    </g>
</svg>
