<svg width="20" height="20" viewBox="0 0 20 20" fill="none" xmlns="http://www.w3.org/2000/svg" aria-hidden="true">
    <path fill-rule="evenodd" clip-rule="evenodd" d="M3.99976 2C4.55204 2 4.99976 2.44772 4.99976 3V5.10125C6.26985 3.80489 8.04028 3 9.99976 3C13.0492 3 15.6407 4.94932 16.6012 7.66675C16.7852 8.18747 16.5123 8.75879 15.9916 8.94284C15.4709 9.12689 14.8996 8.85396 14.7155 8.33325C14.0286 6.38991 12.1752 5 9.99976 5C8.36482 5 6.91179 5.78502 5.99911 7H8.99976C9.55204 7 9.99976 7.44771 9.99976 8C9.99976 8.55228 9.55204 9 8.99976 9H3.99976C3.44747 9 2.99976 8.55228 2.99976 8V3C2.99976 2.44772 3.44747 2 3.99976 2ZM4.00792 11.0572C4.52864 10.8731 5.09996 11.146 5.28401 11.6668C5.97088 13.6101 7.82429 15 9.99976 15C11.6347 15 13.0877 14.215 14.0004 13L10.9998 13C10.4475 13 9.99976 12.5523 9.99976 12C9.99976 11.4477 10.4475 11 10.9998 11H15.9998C16.265 11 16.5193 11.1054 16.7069 11.2929C16.8944 11.4804 16.9998 11.7348 16.9998 12V17C16.9998 17.5523 16.552 18 15.9998 18C15.4475 18 14.9998 17.5523 14.9998 17V14.8987C13.7297 16.1951 11.9592 17 9.99976 17C6.95035 17 4.3588 15.0507 3.39833 12.3332C3.21428 11.8125 3.48721 11.2412 4.00792 11.0572Z" fill="currentColor"/>
</svg>
